<?xml version="1.0" standalone="no"?>
<!DOCTYPE svg PUBLIC "-//W3C//DTD SVG 20010904//EN"
 "http://www.w3.org/TR/2001/REC-SVG-20010904/DTD/svg10.dtd">
<svg version="1.0" xmlns="http://www.w3.org/2000/svg"
 width="600.000000pt" height="400.000000pt" viewBox="0 0 600.000000 400.000000"
 preserveAspectRatio="xMidYMid meet">

<g transform="translate(0.000000,400.000000) scale(0.100000,-0.100000)"
fill="#000000" stroke="none">
<path d="M0 2625 c0 -1303 1 -1375 18 -1375 9 0 66 5 126 12 91 10 110 15 114
30 2 10 11 18 19 18 9 0 13 -6 9 -15 -7 -19 -6 -19 155 1 103 12 144 14 193 5
87 -16 306 -41 358 -41 23 -1 54 -7 68 -15 l25 -14 -27 -1 c-15 0 -60 4 -100
10 -40 5 -98 11 -128 14 -30 3 -84 11 -120 17 -36 6 -83 12 -105 15 -22 3 -46
7 -52 9 -7 2 -13 0 -13 -4 0 -5 6 -11 13 -14 8 -3 4 -12 -12 -27 -18 -18 -41
-24 -110 -31 -89 -9 -369 -46 -408 -55 -18 -3 -23 -11 -23 -35 l0 -31 58 8
c59 9 208 8 252 -1 17 -4 21 -3 11 3 -26 18 8 24 107 18 62 -3 109 -11 131
-22 44 -22 25 -32 -42 -23 -58 8 -131 10 -88 2 14 -3 34 -11 46 -19 22 -14 73
-27 180 -44 72 -11 179 -12 151 -1 -33 13 1 18 124 19 72 0 130 5 156 14 59
21 249 22 400 3 71 -9 137 -21 146 -26 14 -7 18 -6 18 6 0 9 5 13 10 10 6 -3
10 3 10 15 0 12 -4 18 -10 15 -5 -3 -10 -2 -10 4 0 5 6 11 13 14 9 3 9 7 -2
20 -7 10 -9 17 -3 17 14 0 29 -22 35 -50 3 -20 5 -17 5 10 2 39 -5 54 -30 63
-17 6 -40 -20 -43 -48 -3 -29 -18 -43 -43 -39 -15 2 -58 6 -97 9 -88 6 -268
35 -277 44 -14 13 9 31 45 35 28 4 37 2 37 -9 0 -8 5 -15 10 -15 6 0 10 4 10
8 0 5 16 14 35 22 42 16 38 25 -14 34 -22 3 -41 11 -43 18 -3 8 -12 4 -26 -10
-26 -26 -32 -27 -32 -8 0 9 -17 17 -52 21 -67 9 -111 27 -51 20 32 -3 45 0 52
12 8 15 22 15 135 7 76 -6 131 -15 139 -23 10 -10 7 -11 -13 -7 -14 3 -41 2
-60 -2 -33 -8 -30 -9 35 -16 146 -17 320 -13 225 5 -19 4 0 5 45 4 44 -2 98
-4 120 -4 30 -1 36 -4 25 -11 -8 -5 -29 -10 -45 -10 -53 0 -74 -23 -73 -82 0
-34 -5 -55 -15 -62 -31 -23 7 -31 132 -28 140 4 294 -6 286 -17 -5 -8 -81 -21
-150 -25 -22 -1 -47 3 -55 10 -8 7 -38 13 -65 13 -91 0 -199 -5 -255 -13 -39
-5 -79 -3 -132 8 -43 9 -92 16 -110 15 -32 -1 -32 -1 -8 -10 20 -7 16 -8 -17
-5 -32 3 -43 0 -43 -10 0 -7 10 -16 23 -18 12 -3 36 -8 52 -12 17 -4 33 -8 37
-8 3 -1 10 -4 14 -8 4 -5 28 -8 52 -8 69 0 43 -11 -34 -14 -43 -2 -60 -1 -44
4 14 5 19 9 13 10 -33 6 -59 6 -68 -1 -6 -4 -46 -1 -90 7 -96 16 -147 18 -125
4 8 -5 34 -12 58 -16 23 -3 42 -10 42 -14 0 -5 44 -16 98 -25 53 -9 120 -23
147 -30 28 -7 75 -16 105 -20 30 -3 63 -9 74 -12 10 -3 16 -1 13 4 -6 9 87 2
133 -11 18 -5 21 -4 10 2 -8 6 -41 15 -72 22 -58 13 -69 29 -20 29 15 0 43 1
62 1 19 0 74 -4 121 -9 69 -8 96 -7 134 5 55 16 95 18 95 5 0 -5 -8 -12 -17
-14 -10 -2 20 -4 66 -3 50 0 86 5 88 12 2 6 -10 11 -29 11 -54 1 -119 15 -116
25 3 8 73 18 132 19 25 0 33 -10 16 -21 -13 -8 -12 -10 3 -11 34 -3 37 -4 38
-14 0 -5 -21 -18 -48 -27 -31 -11 -40 -17 -25 -18 13 0 20 -4 17 -10 -4 -6 14
-7 47 -3 69 8 99 7 107 -4 3 -4 11 -8 16 -8 37 -2 106 -19 111 -27 4 -6 -1 -8
-13 -4 -14 4 -20 2 -20 -9 0 -18 28 -20 46 -2 9 8 12 8 7 0 -4 -8 12 -15 51
-23 32 -6 67 -14 78 -18 11 -5 31 -8 46 -7 20 1 25 -4 25 -22 0 -13 -4 -23 -9
-23 -5 0 -6 8 -3 18 5 15 5 15 -6 2 -7 -9 -32 -22 -56 -29 -23 -8 -39 -17 -36
-20 12 -12 522 -104 538 -97 6 2 1 5 -11 5 -13 1 -23 6 -23 11 0 6 11 8 28 4
15 -3 43 -7 62 -7 19 -1 36 -6 37 -12 1 -5 -5 -9 -14 -7 -8 2 -12 -1 -9 -6 8
-13 56 -22 56 -11 0 5 10 8 23 8 19 -1 19 -2 3 -6 -14 -4 -15 -7 -6 -13 15
-10 52 -1 44 11 -3 5 2 6 10 3 9 -3 14 -9 12 -13 -2 -3 9 -6 26 -7 16 -1 24 2
18 6 -8 5 -7 9 4 13 9 4 16 2 16 -3 0 -5 7 -7 15 -4 8 4 15 1 15 -5 0 -6 -5
-11 -12 -11 -6 0 -8 -3 -5 -6 4 -4 13 -2 20 5 15 11 65 12 82 1 6 -4 21 -3 35
1 23 6 22 7 -10 10 -33 2 -49 4 -60 9 -3 1 -12 3 -20 5 -8 1 -40 8 -70 14 -30
6 -98 17 -150 25 -153 24 -483 86 -505 96 -19 8 -19 9 3 9 12 1 22 6 22 12 0
6 -6 9 -13 6 -17 -6 -44 9 -35 19 4 4 20 1 36 -5 15 -6 55 -10 87 -9 36 2 59
-1 58 -7 -1 -6 30 -10 77 -10 51 0 75 -3 70 -10 -5 -6 8 -9 38 -8 26 1 66 -2
89 -8 67 -14 173 -21 144 -9 -36 15 -18 23 25 11 21 -6 40 -9 42 -6 2 2 -11 8
-29 14 -26 7 -28 9 -11 10 12 1 39 -8 59 -19 l38 -20 -30 0 c-42 0 -19 -18 31
-24 22 -2 57 -7 76 -11 28 -5 37 -3 42 10 3 9 3 22 -1 28 -4 7 2 5 12 -3 10
-8 16 -10 12 -3 -4 6 -3 14 3 18 9 6 15 -8 11 -29 -1 -5 5 -4 13 3 9 8 26 11
41 7 27 -7 32 3 13 22 -14 14 -42 16 -33 2 3 -6 -1 -10 -10 -10 -12 0 -14 4
-5 19 13 25 13 42 -1 19 -5 -9 -15 -15 -22 -13 -6 2 -34 6 -61 9 -82 8 -83 26
-2 38 29 4 15 23 -19 25 -40 2 -76 14 -70 22 2 4 -17 7 -43 6 -26 -1 -35 0
-19 2 15 3 27 11 27 19 0 8 4 13 9 9 5 -3 12 -1 15 4 4 6 19 6 39 1 28 -8 30
-8 14 4 -15 11 -15 15 -3 19 8 3 17 1 20 -6 3 -9 7 -9 13 -1 4 6 55 14 113 17
125 7 186 17 170 27 -6 4 12 10 41 14 29 4 62 12 73 18 19 10 20 10 6 -7 -14
-17 -12 -18 35 -11 28 4 51 11 53 16 2 4 21 6 42 3 24 -3 40 -2 40 5 0 5 9 12
20 15 13 3 18 1 13 -6 -4 -7 2 -8 18 -3 78 22 358 23 375 0 6 -7 15 -10 19 -6
5 4 5 1 1 -6 -4 -6 -15 -12 -25 -12 -10 0 -30 -9 -43 -20 -14 -10 -28 -16 -32
-13 -3 3 -6 -1 -6 -10 0 -9 -8 -17 -17 -17 -10 0 -24 -4 -31 -9 -8 -4 11 -7
45 -6 41 1 64 -3 77 -14 18 -15 18 -15 5 6 -8 13 -23 23 -34 23 -14 0 -16 3
-7 9 7 4 33 5 57 1 24 -4 42 -3 39 2 -3 4 -2 8 3 9 18 1 71 8 113 15 25 4 55
8 66 9 12 2 31 8 42 14 19 10 20 9 12 -19 -5 -17 -9 -33 -9 -37 -1 -10 -44 -9
-61 2 -8 4 -5 -3 7 -16 18 -19 20 -28 11 -37 -6 -6 -13 -21 -15 -32 -2 -15 1
-18 15 -13 15 6 15 5 3 -10 -7 -9 -10 -17 -6 -17 4 0 2 -7 -5 -15 -7 -8 -17
-12 -24 -8 -6 3 -8 3 -4 -2 4 -4 2 -15 -5 -24 -10 -14 -10 -14 4 -4 9 7 20 9
24 5 5 -4 5 -2 2 4 -6 11 39 61 51 57 4 -2 7 2 7 7 0 10 10 11 33 2 9 -3 3
-15 -19 -38 -18 -19 -29 -34 -25 -34 5 0 2 -8 -5 -17 -10 -11 -10 -14 -1 -9 7
4 12 2 12 -4 0 -6 5 -8 10 -5 6 4 8 10 5 15 -7 12 36 3 48 -9 6 -6 0 -8 -17
-7 -15 2 -29 -1 -32 -6 -3 -4 -9 -6 -14 -3 -4 3 -13 -2 -20 -10 -7 -8 -16 -13
-20 -10 -4 2 -16 -5 -26 -18 -16 -18 -16 -19 -1 -8 9 7 17 10 17 6 0 -5 8 0
19 9 17 16 19 16 25 -1 4 -9 4 -14 0 -10 -4 4 -20 -5 -36 -20 -15 -15 -28 -22
-28 -16 0 6 -6 10 -12 9 -21 -3 -39 -17 -33 -26 3 -5 1 -11 -5 -15 -5 -3 -10
-11 -10 -17 0 -7 14 1 30 17 17 16 30 25 30 20 0 -5 11 2 25 15 15 14 25 18
25 11 0 -10 3 -11 13 -2 8 6 16 9 18 6 3 -2 5 8 5 23 -1 15 5 28 12 28 6 1 14
3 17 4 3 1 8 3 13 4 18 3 32 18 26 29 -5 9 -3 8 6 0 11 -10 10 -16 -4 -32 -10
-11 -24 -17 -32 -14 -8 3 -14 0 -14 -7 0 -6 5 -8 12 -4 7 4 8 3 4 -5 -4 -6
-12 -8 -18 -5 -7 5 -8 2 -3 -6 5 -9 4 -11 -3 -6 -8 5 -10 1 -6 -9 5 -11 10
-13 17 -6 6 6 16 7 27 1 13 -7 22 -5 30 5 9 11 10 15 1 15 -7 0 -9 5 -5 11 5
8 9 8 14 -1 5 -7 13 -2 24 15 10 15 20 24 23 22 3 -3 -12 -26 -33 -51 -30 -36
-41 -43 -55 -35 -12 6 -20 5 -25 -3 -4 -7 -3 -8 4 -4 7 4 12 2 12 -4 0 -6 5
-8 12 -4 7 5 8 3 4 -5 -5 -7 -11 -10 -14 -7 -7 8 -62 -44 -62 -58 0 -5 13 2
28 17 16 15 31 25 34 22 3 -3 22 15 43 40 20 25 40 44 43 41 3 -3 11 -1 19 5
8 7 13 8 13 1 0 -5 -7 -15 -15 -22 -8 -7 -15 -18 -15 -24 0 -6 7 -2 15 8 9 12
15 15 15 7 0 -11 3 -11 15 -1 17 14 21 35 5 25 -5 -3 -10 -1 -10 4 0 6 0 14 0
19 0 4 3 7 8 7 13 0 32 16 32 27 0 6 -7 5 -18 -3 -15 -13 -16 -12 -4 3 8 10
17 16 22 15 4 -1 17 9 28 23 12 14 21 20 22 14 0 -6 -7 -17 -15 -24 -8 -7 -15
-18 -15 -24 0 -6 9 0 20 14 13 17 20 20 20 10 0 -9 9 -4 25 15 13 17 24 26 25
21 0 -5 6 -3 14 3 8 7 13 24 11 39 -2 15 -4 31 -4 36 -1 4 -10 -2 -22 -15 -18
-21 -20 -22 -15 -4 6 20 6 20 -9 1 -8 -11 -15 -15 -15 -9 0 9 -27 11 -37 3
-17 -13 -67 6 -57 21 4 7 10 6 19 -1 10 -8 15 -8 21 1 5 8 3 9 -7 4 -12 -8
-12 -6 0 8 8 10 16 15 19 12 3 -3 14 3 25 12 10 10 21 17 23 16 2 -2 5 -3 7
-2 21 6 38 5 44 -3 3 -6 1 -8 -4 -5 -14 9 -37 -19 -28 -33 5 -8 11 -7 22 2 21
17 43 19 37 3 -4 -9 1 -12 13 -10 10 2 18 4 18 5 0 1 8 3 18 5 11 2 16 0 12
-3 -4 -4 -12 -7 -17 -7 -6 0 -13 -5 -15 -12 -5 -13 15 -12 37 2 18 11 45 16
35 7 -4 -4 -12 -7 -17 -7 -6 0 -13 -6 -16 -14 -3 -9 0 -11 9 -6 8 5 10 4 6 0
-12 -13 -37 -15 -37 -2 0 5 -2 8 -5 5 -9 -8 6 -38 16 -32 5 3 6 -3 3 -13 -4
-13 0 -11 15 7 18 21 20 22 15 5 -5 -17 -2 -16 15 5 18 21 20 22 15 5 l-6 -20
17 20 c17 20 17 20 10 -4 -5 -16 -4 -21 4 -17 6 4 11 2 11 -4 0 -6 5 -8 11 -4
7 4 7 -2 -1 -17 -18 -34 -24 -38 -15 -10 5 16 4 21 -4 17 -6 -4 -11 -2 -11 4
0 6 -5 8 -10 5 -6 -3 -10 0 -10 7 0 7 -10 -2 -21 -19 -23 -37 -36 -45 -19 -12
23 41 2 29 -24 -15 -31 -53 -34 -71 -5 -36 17 21 19 22 10 3 -17 -34 -12 -40
10 -13 l21 25 -19 -33 c-10 -18 -19 -28 -21 -22 -2 5 -8 8 -13 4 -5 -3 -9 0
-9 7 0 8 -4 8 -15 -1 -13 -11 -14 -10 -8 6 6 17 5 17 -10 5 -15 -12 -17 -12
-11 3 12 32 -5 15 -47 -49 -46 -70 -64 -88 -30 -29 30 51 18 55 -15 5 -14 -23
-29 -41 -31 -41 -3 0 2 11 11 25 25 37 18 44 -11 10 -24 -28 -25 -29 -9 -3 24
41 19 47 -12 13 -15 -17 -23 -25 -18 -18 5 8 6 16 3 19 -3 3 -18 -12 -34 -35
-15 -22 -32 -40 -36 -41 -4 0 3 15 17 33 30 39 35 63 6 28 -11 -13 -20 -17
-20 -10 0 7 -12 1 -28 -14 -16 -15 -31 -25 -34 -22 -3 3 -20 -11 -37 -32 -18
-21 -29 -29 -25 -19 5 13 4 17 -4 12 -7 -4 -12 -2 -12 5 0 8 -4 8 -15 -1 -30
-25 -14 7 20 40 19 19 35 38 35 43 0 15 -18 -2 -86 -86 -49 -60 -56 -71 -26
-42 47 44 57 38 15 -9 -16 -18 -10 -14 15 9 23 21 42 34 42 29 0 -6 -11 -21
-25 -34 -14 -13 -23 -26 -20 -28 3 -3 14 7 26 22 12 15 24 25 27 22 3 -3 -1
-14 -9 -24 -8 -10 8 4 35 32 40 41 45 44 26 16 -13 -19 -40 -55 -60 -80 -41
-50 -54 -70 -46 -70 3 0 38 40 77 90 40 49 74 90 76 90 4 0 -59 -91 -99 -142
-12 -15 -19 -30 -16 -34 3 -3 22 19 42 48 43 62 103 133 87 101 -6 -12 -16
-25 -21 -28 -6 -3 -10 -11 -10 -17 0 -6 12 -1 26 13 16 14 3 -10 -31 -59 -31
-46 -56 -85 -53 -87 2 -2 28 29 58 70 30 41 56 72 58 70 3 -2 -5 -16 -17 -31
-33 -41 -24 -53 10 -14 28 33 29 33 13 5 -10 -16 -28 -43 -41 -58 -13 -16 -23
-33 -23 -39 0 -18 31 14 68 72 19 30 37 49 40 42 3 -10 7 -10 20 0 18 15 18
14 -36 -70 -18 -30 -31 -57 -27 -60 3 -4 10 0 15 8 8 12 10 12 10 -4 0 -16 2
-17 17 -5 15 12 16 12 10 -4 -6 -15 -4 -16 13 -7 15 8 20 8 20 -1 0 -6 7 -9
14 -6 10 4 13 1 9 -9 -3 -8 -12 -13 -21 -12 -16 3 -57 -51 -80 -104 -20 -47 6
-31 28 16 21 48 40 67 40 42 0 -8 -5 -18 -10 -21 -6 -3 -19 -26 -30 -49 -11
-24 -27 -46 -35 -50 -9 -3 -13 -2 -10 4 3 6 1 10 -4 10 -6 0 -11 -4 -11 -10 0
-5 -4 -10 -10 -10 -5 0 -10 7 -10 15 0 9 -6 12 -15 9 -11 -5 -14 -2 -8 12 4
13 -3 9 -22 -11 l-29 -30 89 -3 c64 -2 91 1 97 10 6 10 8 10 8 1 0 -10 25 -13
89 -13 62 0 91 4 94 13 4 10 6 10 6 0 1 -10 84 -13 381 -13 l380 0 0 901 0
901 -82 -6 c-46 -3 -166 -10 -268 -16 -102 -6 -198 -16 -215 -22 -220 -79
-250 -88 -308 -88 -70 0 -66 7 18 39 33 12 68 27 77 32 10 5 26 9 35 9 10 0
25 5 33 10 26 17 -291 1 -318 -17 -13 -8 -40 -13 -60 -11 -30 2 -38 7 -40 26
-3 18 1 22 25 23 15 0 71 5 123 10 52 5 104 9 115 9 11 0 36 0 55 0 19 0 47 9
62 20 15 11 32 20 38 20 5 0 10 5 10 10 0 6 -4 10 -10 10 -5 0 -10 5 -10 10 0
6 9 10 20 10 11 0 20 -4 20 -9 0 -14 39 -24 53 -13 7 5 21 12 32 14 11 3 28 9
38 13 12 5 17 2 17 -9 0 -17 -23 -29 -100 -53 l-45 -13 76 5 c41 2 91 10 110
18 39 14 69 16 68 3 -2 -19 29 -25 106 -20 44 2 135 5 202 7 l123 2 0 104 0
104 -46 -7 c-26 -3 -53 -6 -60 -6 -8 0 -11 -6 -8 -15 4 -8 17 -15 30 -15 35 0
29 -11 -20 -42 -33 -21 -56 -28 -95 -28 -46 0 -51 2 -51 23 -1 30 -31 64 -61
69 -20 2 -25 10 -30 48 l-6 45 -1 -42 c-2 -38 -5 -42 -33 -48 -17 -4 -33 -13
-35 -20 -3 -7 -15 -15 -26 -18 -16 -5 -19 -12 -16 -31 4 -22 2 -26 -18 -26
-13 0 -27 -1 -30 -2 -12 -6 -33 76 -23 88 8 9 -24 11 -138 8 -188 -4 -193 -2
-194 94 0 37 -5 76 -10 87 -6 14 -8 -5 -6 -60 2 -46 10 -90 18 -103 12 -20 12
-24 -1 -32 -24 -15 -37 -12 -58 15 -11 14 -25 25 -30 25 -14 0 -19 20 -27 105
-4 39 -11 75 -17 82 -5 7 -7 16 -4 21 2 4 0 57 -5 116 -10 109 -6 154 10 127
5 -8 12 -46 16 -85 3 -40 10 -79 16 -86 7 -13 9 -13 9 0 0 13 1 13 11 0 7 -11
9 30 8 135 -1 171 1 198 11 105 4 -36 12 -119 19 -185 7 -66 18 -124 23 -130
7 -7 8 18 2 75 -11 119 -12 272 -2 292 5 10 4 19 -2 23 -12 8 -13 62 -1 69 19
12 28 -23 29 -109 0 -49 3 -97 6 -105 9 -25 26 -205 27 -287 0 -43 4 -98 8
-123 l8 -45 2 45 c0 25 -4 99 -10 165 -5 66 -12 186 -14 268 -5 142 -4 147 15
147 27 0 25 14 -5 34 -14 9 -25 23 -25 31 0 18 -12 19 -28 3 -17 -17 -34 3
-36 43 -2 39 -26 53 -26 15 0 -31 -7 -32 -39 -5 -22 18 -23 21 -7 37 16 18 71
35 171 54 124 22 141 23 188 10 37 -11 51 -11 62 -2 8 6 55 14 105 16 51 2
109 8 130 13 22 5 59 6 82 4 36 -4 51 0 82 21 l39 26 15 -21 c11 -16 21 -20
46 -15 17 4 37 7 44 8 9 1 12 36 12 139 l0 139 -32 -6 c-18 -3 -46 -10 -63
-14 -16 -5 -75 -16 -129 -26 -55 -9 -111 -23 -123 -32 -17 -11 -27 -12 -35 -4
-15 15 15 43 44 40 19 -3 23 2 24 28 1 42 11 54 42 54 25 -1 26 -2 9 -15 -21
-16 -19 -50 3 -50 9 0 15 10 16 25 0 27 21 30 39 6 15 -19 35 -8 35 20 0 18
-6 24 -22 25 -30 1 56 25 119 32 26 4 41 4 33 1 -80 -32 -99 -44 -94 -58 9
-24 33 -19 40 9 7 28 29 33 38 10 3 -8 12 -15 19 -15 33 0 37 47 37 405 l0
355 -1165 0 -1165 0 16 -25 c9 -13 24 -27 33 -30 10 -3 27 -14 39 -25 11 -11
26 -21 33 -22 21 -5 78 -73 69 -82 -10 -10 -60 25 -106 73 -18 20 -56 40 -107
58 -44 15 -81 33 -84 40 -4 10 -162 13 -803 13 -781 0 -798 0 -793 -19 5 -18
7 -18 39 -5 31 13 35 13 40 -1 4 -9 4 -19 0 -22 -7 -8 25 -32 43 -33 11 0 9 5
-4 20 -18 20 -18 21 1 14 30 -10 121 -51 272 -120 66 -31 72 -36 72 -64 0 -16
-2 -30 -5 -30 -3 0 -90 38 -193 84 -199 90 -242 105 -242 87 0 -6 -13 -11 -30
-11 -34 0 -41 23 -12 39 15 9 14 11 -8 19 -14 5 -42 17 -64 26 -21 9 -50 16
-65 16 l-26 -1 25 -14 c33 -19 20 -19 -29 1 -29 11 -58 14 -103 10 -35 -3 -72
-5 -83 -5 -11 0 -202 2 -425 4 -440 5 -430 6 -287 -46 l57 -20 0 -55 c0 -30
-1 -54 -3 -54 -4 0 -100 33 -346 119 l-174 61 -208 0 -209 -1 0 -1374z m260
1333 c36 -11 115 -38 175 -59 61 -21 182 -61 270 -89 210 -67 217 -70 211 -87
-3 -7 2 -17 12 -21 9 -4 17 -11 18 -17 1 -24 17 -65 25 -65 5 0 9 -12 10 -27
1 -59 18 11 18 79 1 57 3 66 17 61 9 -3 11 -9 6 -12 -10 -6 3 -1130 16 -1394
4 -81 6 -147 4 -147 -2 0 -12 5 -23 10 -13 8 -19 7 -19 0 0 -6 -13 -2 -29 9
-21 15 -30 18 -34 9 -3 -10 -7 -10 -20 1 -10 7 -27 11 -40 7 -27 -6 -40 1 -30
18 4 6 8 17 9 26 1 8 5 23 9 33 5 12 3 17 -9 17 -15 0 -16 7 -6 50 0 3 7 -3
15 -13 19 -26 49 -18 52 14 1 22 -2 25 -21 22 -25 -5 -51 19 -43 40 3 8 26 20
51 27 l46 13 0 127 0 127 -38 27 c-48 33 -52 32 -52 -1 -1 -23 -2 -25 -10 -11
-7 10 -31 19 -72 24 -35 4 -70 8 -78 9 -220 32 -341 31 -442 -1 -15 -4 -17 4
-17 61 0 53 -4 70 -18 80 -10 7 -21 11 -25 9 -4 -3 -12 3 -19 13 -8 14 -21 17
-55 14 -42 -3 -44 -2 -44 23 0 14 6 26 13 26 7 0 24 11 39 25 15 14 32 25 38
25 5 0 10 4 10 9 0 5 15 12 33 16 37 9 36 9 61 -1 15 -6 18 -4 13 8 -4 12 0
15 18 14 28 -4 57 27 49 51 -5 17 -5 17 9 1 8 -10 17 -18 21 -18 4 0 14 -7 22
-15 21 -21 67 -31 72 -17 2 7 11 12 20 12 10 0 25 6 34 13 10 8 42 12 82 11
92 -3 83 13 -11 21 -43 3 -114 10 -158 15 -44 5 -146 17 -227 26 -135 16 -148
19 -148 37 0 20 18 20 118 6 4 -1 23 -1 42 0 33 2 34 3 13 13 -27 13 -30 28
-6 28 9 0 13 3 9 8 -4 4 -13 7 -19 7 -7 0 -12 7 -12 15 0 8 6 14 13 12 6 -1
12 6 12 17 0 14 10 20 40 25 46 7 54 26 11 26 -16 0 -32 6 -34 13 -3 6 -6 2
-6 -10 -1 -13 -7 -23 -16 -23 -22 0 -18 38 5 45 23 7 24 13 10 51 -8 21 -14
24 -22 16 -16 -16 -21 -15 -46 7 -27 23 -28 41 -3 41 11 0 22 4 26 10 6 10
-29 50 -46 50 -5 0 -3 13 7 29 16 27 16 30 1 46 -10 9 -16 28 -16 43 1 17 3
21 6 9 2 -9 8 -15 12 -13 4 3 13 0 21 -5 13 -8 13 -10 0 -19 -13 -8 -12 -10 3
-10 9 0 17 5 17 11 0 7 12 10 30 7 57 -9 21 37 -38 48 -30 5 -63 19 -101 41
-2 2 3 11 13 22 14 15 14 19 3 24 -16 6 -29 70 -20 93 5 13 8 13 15 2 7 -10
11 -10 15 0 2 6 12 12 20 12 11 0 14 6 10 21 -8 30 3 51 22 44 9 -4 45 -15 81
-27z m747 -115 c-3 -10 -5 -4 -5 12 0 17 2 24 5 18 2 -7 2 -21 0 -30z m2062
20 c-7 -10 -24 -30 -38 -46 l-25 -27 -22 27 -21 27 21 18 c12 10 38 17 60 18
35 0 37 -2 25 -17z m-1915 -13 c26 -10 36 -32 14 -29 -26 3 -35 -2 -46 -26 -6
-13 -26 -31 -44 -40 l-33 -16 33 26 c25 21 32 34 32 61 0 37 5 39 44 24z
m2622 -56 c9 -13 15 -27 12 -29 -8 -8 -78 56 -72 66 8 13 41 -7 60 -37z
m-2775 19 c0 -5 2 -18 3 -30 2 -14 -3 -23 -11 -23 -7 0 -13 6 -13 14 0 8 -3
21 -6 30 -4 11 -1 16 10 16 9 0 16 -3 17 -7z m257 1 c20 -6 22 -13 22 -65 l0
-59 -41 20 c-31 16 -39 25 -34 38 8 19 13 41 14 60 1 14 6 14 39 6z m1892 -20
c0 -8 -4 -14 -9 -14 -11 0 -22 26 -14 34 9 9 23 -3 23 -20z m-31 -40 c-16 -19
-29 -17 -29 4 0 26 11 34 27 21 10 -9 10 -15 2 -25z m452 18 c-11 -20 -41 -48
-41 -38 0 6 41 56 47 56 2 0 -1 -8 -6 -18z m-2090 -37 c41 -14 81 -29 89 -32
8 -3 56 -20 105 -38 50 -18 122 -45 160 -59 99 -38 155 -58 275 -101 58 -21
109 -41 115 -46 5 -5 -76 20 -180 56 -171 59 -575 193 -632 210 -23 6 -29 16
-16 28 8 9 -2 11 84 -18z m-1401 11 c0 -3 -4 -8 -10 -11 -5 -3 -10 -1 -10 4 0
6 5 11 10 11 6 0 10 -2 10 -4z m3184 -18 c8 -14 6 -20 -9 -32 -25 -18 -45 -10
-45 18 0 40 32 48 54 14z m785 -53 c64 -32 252 -94 334 -110 93 -18 291 -21
411 -5 43 5 82 7 87 4 18 -11 189 17 394 66 271 63 276 64 321 52 34 -9 52 -9
91 3 56 17 63 18 63 6 0 -10 -69 -38 -117 -47 -18 -4 -31 -10 -28 -14 2 -3
-18 -13 -45 -20 -53 -15 -67 -33 -55 -77 6 -24 8 -25 58 -18 73 10 89 13 113
20 12 4 25 2 28 -4 4 -6 18 -11 31 -11 13 0 27 -5 30 -11 12 -18 49 -27 68
-17 31 16 67 1 67 -26 0 -18 6 -26 23 -28 17 -3 11 -7 -23 -17 -75 -20 -72
-18 -55 -44 16 -24 12 -37 -12 -37 -8 0 -13 12 -13 31 0 29 -2 31 -27 24 -37
-9 -38 -11 -25 -39 12 -27 7 -36 -19 -36 -9 0 -20 -7 -23 -16 -4 -11 -14 -14
-29 -11 -12 3 -40 -1 -61 -8 -47 -16 -60 -11 -53 21 5 26 -10 35 -42 27 -25
-6 -26 -11 -4 -35 22 -25 10 -35 -62 -47 -33 -6 -84 -16 -114 -22 -63 -12 -81
-7 -81 22 0 15 -4 19 -16 15 -9 -3 -20 -6 -26 -6 -6 0 -8 -9 -5 -20 5 -18 3
-19 -15 -5 -13 8 -33 12 -52 9 -73 -12 -78 -14 -71 -31 5 -15 3 -15 -14 1 -24
22 -66 13 -56 -12 7 -18 -11 -32 -43 -32 -16 0 -26 7 -29 21 -6 20 -10 21 -79
15 -41 -4 -96 -17 -125 -30 l-52 -23 32 -23 c36 -25 33 -32 -24 -48 -75 -21
-120 -23 -141 -6 -10 8 -14 13 -8 10 6 -3 24 8 40 25 l29 31 -27 -7 c-34 -9
-39 16 -8 38 20 14 20 15 -9 19 -19 3 -41 -2 -58 -13 -28 -19 -48 -16 -39 6 3
10 -9 14 -45 17 -27 1 -49 -1 -49 -6 0 -4 -11 -1 -24 7 -13 9 -46 22 -73 28
-113 29 -313 123 -313 149 0 14 33 35 54 35 15 0 22 7 24 24 2 14 22 46 43 71
41 49 43 70 9 86 -25 11 -159 126 -159 137 -1 4 14 -3 32 -16 17 -14 47 -32
66 -42z m-1316 -17 c117 -58 140 -74 91 -62 -19 5 -25 4 -20 -5 4 -6 18 -11
32 -11 15 0 24 -6 24 -16 0 -9 -4 -14 -8 -12 -5 2 -70 30 -145 63 -130 56
-137 61 -137 88 0 36 4 34 163 -45z m1006 16 c58 -54 61 -58 61 -104 0 -30 6
-52 15 -60 23 -19 18 -32 -7 -19 -70 37 -248 161 -243 169 3 5 12 7 20 3 10
-3 15 2 15 16 0 12 5 21 11 21 5 0 7 -4 4 -10 -9 -15 8 -12 33 6 12 8 20 20
17 25 -17 26 21 3 74 -47z m-2203 -24 c82 -28 156 -54 164 -59 9 -5 30 -12 48
-16 18 -3 32 -10 32 -15 0 -5 12 -10 28 -12 15 -2 26 -8 25 -15 -2 -7 3 -10
11 -7 8 3 33 0 56 -6 34 -9 39 -14 30 -26 -9 -10 -10 -18 -1 -27 8 -11 5 -17
-12 -26 -13 -7 -30 -12 -38 -11 -30 5 -59 0 -59 -10 0 -5 11 -10 24 -10 14 0
28 -4 31 -10 3 -5 22 -10 40 -10 26 0 33 3 29 15 -4 9 0 15 10 15 9 0 13 6 10
14 -9 24 65 41 110 26 33 -11 35 -13 20 -24 -19 -14 -25 -76 -8 -76 6 0 17 7
24 15 7 8 22 15 34 15 19 1 19 2 4 11 -43 25 -3 40 41 15 l24 -13 -24 -17
c-13 -9 -29 -16 -36 -16 -7 0 -42 -13 -76 -30 -35 -16 -68 -30 -74 -30 -5 0
-18 -9 -28 -20 -18 -19 -17 -20 3 -20 11 0 22 5 24 11 3 8 9 6 20 -4 8 -9 19
-13 23 -9 4 4 1 -6 -6 -21 -12 -27 -47 -34 -41 -9 2 10 -52 16 -105 11 -5 0
-7 -9 -6 -20 2 -13 -3 -19 -18 -19 -11 0 -28 -4 -38 -9 -10 -6 -45 -6 -91 0
-40 5 -75 7 -77 5 -3 -2 14 -14 37 -27 23 -13 39 -28 36 -36 -5 -12 8 -25 29
-30 60 -12 137 -24 220 -33 55 -6 129 -15 165 -21 36 -5 100 -10 142 -12 74
-2 78 -3 78 -25 0 -18 -3 -20 -17 -13 -10 6 -103 15 -208 21 -104 6 -239 15
-300 20 -60 5 -180 14 -265 20 -178 12 -190 15 -190 40 0 15 9 19 48 22 l47 3
-40 18 c-48 21 -55 32 -55 78 0 29 5 37 28 46 l27 11 -27 1 c-23 1 -28 6 -28
26 0 18 5 25 19 25 30 0 35 19 6 26 -28 7 -26 -8 -31 207 -1 70 -1 127 1 127
1 0 69 -23 151 -50z m-1386 -2 c0 -12 -12 -9 -34 7 -10 7 -15 19 -11 25 7 12
45 -15 45 -32z m1050 2 c37 -11 72 -26 77 -33 5 -7 9 -110 9 -235 -1 -186 -3
-224 -16 -232 -13 -8 -13 -10 1 -10 18 0 33 -26 24 -40 -5 -8 -134 -3 -162 5
-10 3 -13 69 -13 285 0 154 3 280 6 280 4 0 37 -9 74 -20z m2284 -26 c8 -20
-1 -34 -20 -34 -8 0 -14 10 -14 25 0 28 24 34 34 9z m-449 -13 c-6 -5 -26 -12
-45 -15 l-35 -6 35 14 c42 17 58 20 45 7z m-100 -11 c3 -5 -3 -10 -14 -10 -12
0 -21 5 -21 10 0 6 6 10 14 10 8 0 18 -4 21 -10z m5 -55 c0 -19 -27 -33 -79
-41 -33 -5 -41 -4 -41 9 0 10 20 23 53 35 54 21 67 20 67 -3z m-633 1 c4 -7
29 -23 56 -34 27 -12 47 -27 47 -36 0 -22 -23 -20 -71 5 -23 11 -43 18 -46 15
-3 -3 -19 2 -35 10 l-29 15 23 19 c27 23 44 25 55 6z m462 -37 c-38 -20 -49
-23 -49 -11 0 12 63 41 74 34 5 -3 -6 -13 -25 -23z m261 -29 c22 -11 40 -22
40 -25 0 -6 -113 46 -125 57 -13 12 32 -5 85 -32z m90 -45 c14 -8 21 -14 15
-14 -5 0 -21 6 -35 14 -14 8 -20 14 -15 14 6 0 21 -6 35 -14z m125 -33 c-3 -3
-11 0 -18 7 -9 10 -8 11 6 5 10 -3 15 -9 12 -12z m-835 -12 c8 -5 11 -10 5
-10 -5 0 -17 5 -25 10 -8 5 -10 10 -5 10 6 0 17 -5 25 -10z m107 -52 c-3 -8
-6 -5 -6 6 -1 11 2 17 5 13 3 -3 4 -12 1 -19z m1403 -8 c0 -5 -4 -10 -10 -10
-5 0 -10 5 -10 10 0 6 5 10 10 10 6 0 10 -4 10 -10z m-1396 -78 c4 -31 3 -51
-2 -48 -5 3 -10 29 -11 58 -2 65 4 60 13 -10z m-2329 18 c3 -5 -1 -10 -9 -10
-9 0 -16 5 -16 10 0 6 4 10 9 10 6 0 13 -4 16 -10z m3253 -22 c-3 -7 -11 -13
-18 -13 -7 0 -15 6 -17 13 -3 7 4 12 17 12 13 0 20 -5 18 -12z m-1058 -18 c0
-5 -7 -10 -15 -10 -8 0 -15 5 -15 10 0 6 7 10 15 10 8 0 15 -4 15 -10z m3260
1 c-21 -6 -22 -8 -8 -14 27 -10 11 -39 -20 -35 -30 3 -42 28 -15 29 12 0 14 2
4 6 -20 8 7 23 39 22 l25 -1 -25 -7z m-70 -15 c0 -1 -35 -11 -77 -20 -129 -29
-146 -36 -132 -52 16 -19 36 -18 48 3 8 15 11 15 25 3 15 -11 19 -10 32 8 18
26 94 32 94 8 0 -8 7 -16 15 -20 8 -3 15 -9 15 -14 0 -8 -194 -44 -345 -64
-44 -5 -95 -16 -114 -24 -46 -19 -68 -18 -81 7 -15 28 -5 36 18 16 26 -24 33
-21 26 8 -4 17 -2 25 7 25 7 0 10 2 7 5 -3 4 -34 0 -69 -8 -78 -18 -159 -30
-159 -24 0 19 287 87 590 140 32 6 100 8 100 3z m-3113 -28 c-3 -8 -6 -5 -6 6
-1 11 2 17 5 13 3 -3 4 -12 1 -19z m-227 -8 c0 -12 -37 -14 -44 -2 -2 4 6 9
20 10 13 1 24 -3 24 -8z m117 -77 c-2 -16 -4 -3 -4 27 0 30 2 43 4 28 2 -16 2
-40 0 -55z m2550 60 c3 -7 -4 -9 -16 -6 -12 3 -18 9 -15 15 7 11 26 6 31 -9z
m-2353 -478 c9 -176 17 -339 19 -362 l2 -43 -52 0 c-49 0 -53 2 -53 24 0 14 5
28 10 31 6 4 7 11 4 17 -3 5 -7 40 -8 76 0 37 -5 73 -10 80 -5 8 -4 18 3 25 7
7 7 14 0 23 -8 9 -7 23 2 48 11 29 10 40 -2 62 -11 22 -11 28 -1 32 10 3 10 7
0 20 -10 12 -10 16 0 19 19 7 17 123 -3 123 -17 0 -20 25 -5 35 5 3 9 48 9
100 -1 51 2 99 6 105 4 7 1 16 -6 21 -12 8 -12 11 1 19 10 6 17 5 23 -5 12
-22 27 -18 28 8 3 49 18 -155 33 -458z m2234 459 c21 -14 31 -44 14 -44 -16 0
-52 32 -52 46 0 18 10 18 38 -2z m72 7 c0 -18 -18 -21 -30 -6 -10 13 -9 15 9
15 11 0 21 -4 21 -9z m-797 -18 c10 -10 -13 -33 -34 -33 -24 0 -35 20 -18 31
17 10 43 12 52 2z m-826 -49 c56 -24 121 -80 142 -125 16 -33 17 -39 4 -39 -8
0 -13 -6 -10 -12 2 -7 8 -12 13 -11 5 1 26 4 48 8 31 6 38 5 34 -6 -3 -8 -13
-15 -24 -17 -71 -12 -92 -23 -87 -42 4 -15 0 -20 -16 -20 -24 0 -27 10 -9 28
9 9 7 12 -9 12 -12 0 -23 -5 -25 -11 -2 -6 -19 -14 -38 -18 -26 -5 -36 -13
-38 -29 -5 -31 -24 -37 -61 -17 -18 9 -35 13 -40 10 -5 -2 -24 -7 -43 -9 -18
-3 -45 -7 -59 -11 -25 -6 -26 -5 -33 56 -3 34 -6 95 -6 136 0 66 3 77 24 96
52 46 150 55 233 21z m1174 17 c-12 -8 -6 -14 23 -32 36 -21 37 -23 20 -36
-19 -14 -37 -16 -71 -7 -25 7 -39 34 -23 44 6 4 8 14 4 23 -5 14 0 17 27 17
24 0 30 -3 20 -9z m-98 -16 c1 -6 -14 -11 -33 -13 -35 -3 -35 -3 -10 12 27 15
41 16 43 1z m181 0 c40 -17 48 -35 15 -35 -29 0 -59 18 -59 35 0 18 -1 18 44
0z m-3350 -16 c-3 -5 -10 -7 -15 -3 -5 3 -7 10 -3 15 3 5 10 7 15 3 5 -3 7
-10 3 -15z m3744 -14 c12 -19 22 -37 22 -40 0 -13 -27 -2 -52 22 -34 32 -46
26 -18 -10 15 -18 17 -28 9 -33 -8 -4 -22 4 -35 21 -13 16 -26 26 -29 23 -9
-9 18 -48 33 -48 7 0 17 -11 24 -25 10 -22 7 -29 -26 -65 -20 -22 -36 -46 -36
-53 0 -6 18 -28 41 -48 l41 -35 5 -90 c2 -49 7 -110 10 -137 3 -28 1 -53 -6
-61 -9 -10 -8 -15 3 -19 9 -4 16 -31 21 -85 10 -119 25 -124 19 -7 -2 55 -7
115 -9 133 -5 41 5 102 16 102 5 0 9 -7 9 -16 0 -9 9 -27 20 -41 26 -33 25
-53 -1 -53 -20 0 -21 -4 -15 -52 12 -93 18 -120 26 -108 4 7 13 -7 22 -34 9
-26 12 -49 7 -51 -4 -3 -4 -18 1 -35 5 -16 12 -60 16 -97 4 -42 14 -77 25 -92
23 -29 24 -41 4 -41 -8 0 -24 14 -37 30 -12 16 -28 30 -35 30 -16 0 -22 25
-27 125 -2 50 -8 81 -16 83 -8 3 -10 -2 -7 -14 3 -11 9 -58 13 -106 l6 -87
-26 -7 c-28 -7 -36 -24 -11 -24 8 0 15 -4 15 -10 0 -6 -27 -10 -61 -10 -62 0
-73 13 -20 25 23 5 28 10 24 26 -3 11 -13 19 -22 18 -9 -1 -42 -1 -74 0 -46 1
-63 6 -81 24 -13 12 -30 24 -37 26 -61 16 -96 20 -179 21 -52 1 -109 -3 -127
-8 -17 -6 -33 -8 -35 -6 -2 2 -26 -15 -53 -37 -29 -24 -51 -36 -55 -29 -8 13
-115 33 -140 25 -19 -6 -20 -1 -20 65 0 39 -6 86 -14 105 -9 21 -11 37 -5 40
5 4 9 39 9 78 0 103 6 120 39 112 14 -3 42 -9 61 -11 34 -5 34 -5 -14 20 -27
14 -57 26 -67 26 -23 0 -32 54 -24 135 6 55 10 63 33 72 l27 11 -26 1 c-15 1
-31 7 -37 14 -17 20 -21 95 -5 108 10 9 11 15 1 26 -10 12 -9 18 7 29 25 19
65 18 65 -1 0 -17 16 -20 25 -6 7 13 62 6 80 -9 8 -6 24 -10 37 -7 21 4 20 4
-4 6 -15 0 -30 6 -33 11 -9 15 28 12 49 -3 17 -13 17 -14 1 -31 -15 -14 -16
-24 -7 -59 l10 -42 1 40 c1 32 6 42 26 51 20 10 32 8 67 -9 24 -12 45 -25 46
-29 2 -4 15 -8 28 -8 13 0 33 -4 44 -10 61 -31 57 -33 54 23 -1 29 -3 60 -3
70 -1 9 -4 17 -9 17 -4 0 -6 -18 -4 -40 l4 -40 -46 0 c-25 0 -49 0 -53 -1 -4
-1 -14 12 -23 28 -8 16 -22 27 -31 25 -8 -1 -31 8 -51 22 -45 30 -78 41 -78
26 0 -6 -5 -8 -11 -4 -8 5 -6 10 6 16 21 12 211 60 325 83 47 9 109 23 138 32
29 8 83 18 120 23 37 4 69 8 72 9 3 0 15 -15 28 -34z m-992 8 c17 -23 17 -33
0 -33 -18 0 -39 27 -31 40 9 14 16 13 31 -7z m-61 -3 c3 -5 -1 -10 -10 -10 -9
0 -13 5 -10 10 3 6 8 10 10 10 2 0 7 -4 10 -10z m303 -34 c19 -10 32 -20 29
-23 -10 -10 -67 9 -67 22 0 7 -7 16 -16 19 -8 3 -12 11 -8 17 5 9 10 8 18 -3
6 -8 26 -23 44 -32z m878 7 c-4 -4 -11 -1 -16 7 -16 25 -11 35 7 17 9 -9 13
-20 9 -24z m-3769 13 c32 6 53 -10 35 -28 -6 -6 -24 -5 -51 3 -40 12 -43 11
-67 -14 -31 -34 -34 -34 -34 2 0 23 6 30 33 38 17 5 37 6 43 1 6 -4 25 -5 41
-2z m2948 4 c-3 -5 -12 -10 -20 -10 -8 0 -17 5 -20 10 -4 6 5 10 20 10 15 0
24 -4 20 -10z m125 -7 c31 -15 32 -17 15 -29 -26 -19 -85 -15 -85 6 0 16 18
40 30 40 4 0 22 -7 40 -17z m640 -15 c0 -6 -7 -5 -15 2 -8 7 -15 17 -15 22 0
6 7 5 15 -2 8 -7 15 -17 15 -22z m-3494 13 c5 -5 20 -11 34 -14 14 -2 5 -5
-22 -6 -38 -1 -46 2 -42 14 7 17 16 19 30 6z m1448 -32 c9 -47 7 -77 -5 -85
-13 -7 -148 -44 -165 -44 -7 0 -14 9 -17 20 -3 12 -14 20 -26 20 -19 0 -21 -6
-21 -74 0 -54 -4 -75 -14 -79 -21 -8 -26 2 -26 47 0 46 -7 59 -32 69 -21 7
-23 30 -5 44 6 6 30 14 52 17 22 4 57 12 78 18 50 15 31 26 -62 34 -39 4 -71
11 -71 17 0 10 96 5 223 -12 54 -7 71 -1 45 15 -8 5 -6 10 8 15 30 12 31 11
38 -22z m986 -9 c0 -5 -8 -10 -17 -10 -15 0 -16 2 -3 10 19 12 20 12 20 0z
m-2435 -31 c-7 -11 -55 -12 -55 -1 0 4 5 13 12 20 13 13 52 -3 43 -19z m912
-179 c0 -56 -2 -73 -4 -40 -4 56 -18 84 -35 74 -6 -4 -8 -32 -4 -74 7 -67 7
-68 -25 -98 -28 -26 -31 -33 -19 -46 18 -23 11 -26 -48 -19 -47 5 -52 8 -52
30 l0 25 -110 -4 c-93 -3 -111 -6 -123 -22 -21 -28 -8 -64 32 -91 45 -31 62
-31 99 0 35 29 122 52 133 34 5 -8 24 -9 62 -5 l54 7 7 -32 c19 -95 14 -99
-134 -120 -85 -12 -109 -20 -110 -40 0 -19 136 -35 198 -24 33 6 33 7 17 25
-17 19 -17 20 0 26 21 9 37 -13 30 -43 -3 -12 -1 -25 5 -28 5 -3 10 -17 10
-30 0 -18 -8 -26 -35 -35 -19 -6 -37 -15 -40 -20 -2 -4 14 -1 38 7 52 19 139
20 190 4 20 -7 37 -15 37 -18 0 -3 -12 -16 -26 -28 -23 -20 -24 -25 -13 -43
18 -29 10 -33 -37 -21 -48 14 -131 6 -173 -15 -28 -15 -30 -15 -24 1 6 14 0
13 -33 -6 -26 -16 -32 -17 -17 -4 13 11 21 26 18 38 -2 11 -4 27 -4 34 -1 10
-14 3 -36 -19 -19 -19 -34 -39 -34 -44 3 -28 -2 -38 -17 -32 -13 5 -14 4 -6
-7 12 -14 6 -27 -12 -27 -6 0 -4 5 4 11 13 9 13 10 0 6 -8 -2 -15 -11 -15 -21
0 -9 -5 -20 -12 -24 -15 -9 -73 -132 -73 -154 0 -25 -18 -32 -44 -15 -12 8
-44 17 -72 18 l-49 4 0 -110 0 -110 -40 2 c-22 1 -60 6 -85 10 -44 8 -44 8 30
13 l74 5 -3 55 c-2 45 -7 58 -27 74 -20 15 -24 24 -19 46 3 16 2 31 -4 35 -6
3 -12 30 -12 58 l-1 52 -9 -59 c-5 -32 -16 -67 -25 -77 -15 -17 -18 -17 -40
-2 -13 8 -24 22 -24 31 0 8 -6 23 -14 31 -10 12 -12 28 -6 66 4 28 5 55 1 60
-3 6 -6 19 -6 29 0 11 -5 21 -12 23 -8 3 -10 -16 -6 -71 4 -52 2 -76 -5 -76
-6 0 -14 4 -17 10 -3 5 -28 12 -55 16 l-50 7 0 53 c0 40 -4 55 -17 63 -14 8
-11 10 17 15 19 3 42 5 50 5 8 1 39 5 68 9 31 5 55 5 59 -1 3 -5 15 -6 26 -3
28 7 47 -10 47 -43 1 -24 2 -24 12 -7 8 14 8 24 -1 39 -14 21 -6 33 24 39 11
2 21 11 23 20 3 15 -6 16 -75 13 -44 -2 -92 -9 -108 -15 -16 -6 -41 -8 -57 -5
-16 4 -28 2 -28 -4 0 -12 -20 -18 -92 -27 -55 -6 -58 -5 -58 15 0 19 6 21 49
21 28 0 53 5 56 10 6 10 -27 15 -77 11 -24 -2 -28 2 -28 23 0 22 7 27 67 45
36 11 70 18 75 15 4 -3 8 -18 8 -34 0 -16 5 -32 10 -35 6 -4 10 10 10 34 0 41
0 41 39 41 22 0 41 -5 43 -12 3 -8 11 -5 25 9 21 21 112 41 132 29 5 -3 12
-24 16 -46 7 -40 19 -51 28 -27 4 9 8 8 16 -3 16 -23 13 -41 -9 -47 -11 -3
-20 -9 -20 -13 0 -21 14 -40 28 -40 8 0 24 -8 35 -17 18 -17 19 -17 33 2 7 11
19 26 26 34 10 12 8 17 -10 29 -38 25 -23 84 23 96 21 5 25 12 25 41 0 32 -3
35 -27 35 -16 -1 -56 -7 -90 -14 -75 -16 -84 -10 -76 54 3 26 2 50 -3 52 -5 3
-47 -3 -94 -13 -103 -22 -113 -22 -108 -6 3 6 47 23 99 37 81 22 96 29 107 53
8 16 25 32 38 37 33 13 30 23 -6 18 -20 -3 -30 0 -30 9 0 8 13 13 37 13 28 0
34 3 25 12 -6 6 -81 16 -174 24 -158 12 -239 20 -285 30 -18 3 -23 11 -23 33
0 18 8 35 23 45 12 9 17 14 10 11 -8 -4 -15 5 -19 22 -3 15 -8 36 -11 46 -4
16 1 17 64 12 37 -3 79 -8 93 -10 91 -18 474 -22 494 -6 6 5 34 11 61 14 70 8
120 16 188 29 l57 11 1 56 2 56 7 -55 c5 -30 8 -98 7 -150z m1677 189 c14 -7
23 -16 20 -20 -10 -16 -43 -9 -54 11 -12 23 -3 25 34 9z m-210 -15 c18 -7 22
-24 6 -24 -6 0 -20 -9 -32 -20 -26 -24 -41 -25 -57 -6 -10 11 -9 16 5 24 9 5
25 7 35 5 13 -4 19 0 19 11 0 18 2 19 24 10z m66 -4 c0 -5 -5 -10 -11 -10 -5
0 -7 5 -4 10 3 6 8 10 11 10 2 0 4 -4 4 -10z m1834 1 c3 -5 -1 -11 -9 -15 -9
-3 -15 0 -15 9 0 16 16 20 24 6z m-1620 -38 c-18 -13 -36 -14 -35 0 1 4 1 14
1 22 0 12 4 13 26 3 24 -11 25 -13 8 -25z m778 -25 c-9 -9 -12 -7 -12 12 0 19
3 21 12 12 9 -9 9 -15 0 -24z m-1172 -4 c0 -17 -5 -17 -31 -4 -27 15 -24 28 6
22 14 -2 25 -11 25 -18z m195 -14 c3 -11 4 -24 0 -29 -3 -5 -1 -12 5 -16 5 -3
10 -24 10 -45 0 -39 0 -39 -37 -36 -30 3 -39 9 -44 27 l-6 24 -11 -27 c-9 -21
-17 -27 -44 -26 -18 0 -40 -1 -48 -2 -34 -7 -100 1 -100 10 0 6 6 10 13 8 6
-1 32 7 56 19 l44 20 -37 7 c-32 6 -99 0 -118 -11 -4 -2 -2 -13 4 -23 9 -15
10 -22 1 -31 -19 -19 -33 0 -33 46 l0 44 53 10 c107 20 262 49 274 50 6 0 14
-8 18 -19z m-2633 -12 c4 -7 7 -30 5 -50 -2 -34 -5 -38 -30 -38 -22 0 -28 -4
-25 -17 2 -10 12 -19 23 -21 27 -5 45 -21 45 -39 0 -11 -9 -13 -37 -9 -21 3
-62 8 -90 12 l-53 6 0 90 0 90 77 -5 c46 -4 80 -11 85 -19z m1632 6 c4 -9 6
-60 6 -113 0 -53 1 -107 3 -120 2 -21 -4 -26 -35 -34 -47 -11 -50 -27 -5 -27
24 -1 28 -3 16 -10 -25 -15 -99 -16 -108 -1 -5 8 -17 11 -29 7 -18 -6 -22 -1
-31 30 -6 20 -8 41 -6 45 3 4 37 13 75 20 85 15 133 41 60 32 -25 -3 -49 -9
-55 -14 -16 -15 -37 -10 -61 17 -19 20 -24 36 -24 78 0 50 2 54 30 65 118 44
155 49 164 25z m528 -37 c4 -6 5 -14 2 -18 -2 -4 6 -9 17 -12 16 -4 20 -11 16
-26 -3 -12 -1 -21 4 -21 5 0 9 -8 9 -19 0 -14 -9 -20 -37 -24 -21 -3 -51 -10
-67 -16 -28 -11 -28 -12 -11 -31 17 -19 19 -19 37 -4 16 15 20 16 36 2 22 -20
153 -52 161 -40 3 5 35 14 71 21 39 6 70 18 78 28 11 16 12 16 12 0 0 -9 4
-17 9 -17 5 0 7 9 4 20 -5 17 0 20 28 20 31 0 32 -1 13 -14 -23 -18 -19 -22
28 -31 33 -6 37 -5 40 17 2 12 10 23 18 23 8 0 14 -6 12 -14 -1 -7 1 -18 6
-25 13 -16 24 -124 13 -130 -5 -3 -31 1 -57 10 -117 37 -181 50 -203 40 -23
-10 -30 -29 -6 -20 14 6 77 -5 158 -27 42 -11 50 -29 12 -29 -14 0 -25 -4 -25
-10 0 -12 2 -12 36 0 30 12 51 -5 33 -26 -6 -8 -5 -14 6 -17 10 -4 17 2 21 18
5 21 12 25 45 25 21 0 39 -4 39 -10 0 -5 -12 -10 -26 -10 -19 0 -25 -4 -21
-15 6 -15 22 -169 31 -298 l6 -77 -38 -40 c-21 -21 -47 -39 -58 -39 -10 0 -56
-3 -101 -6 l-83 -6 0 38 c0 27 -3 34 -11 26 -8 -8 -24 -3 -60 18 -60 35 -84
41 -128 31 l-34 -7 42 -29 c22 -16 41 -35 41 -42 0 -8 4 -14 10 -14 5 0 15
-18 21 -40 7 -22 18 -40 26 -40 7 0 13 -4 13 -10 0 -5 -7 -10 -15 -10 -10 0
-15 -10 -15 -32 0 -42 -10 -78 -21 -78 -5 0 -9 13 -9 30 0 22 -4 28 -15 24
-12 -5 -14 1 -11 28 4 29 2 33 -17 32 -12 -1 -30 -5 -40 -9 -12 -5 -25 -1 -40
13 -12 11 -34 24 -49 27 -33 8 -36 20 -7 35 18 10 19 13 6 23 -17 14 -30 47
-18 47 5 0 23 3 40 6 34 7 44 -10 11 -19 -24 -6 -27 -27 -4 -27 8 0 13 -4 9
-9 -3 -5 -1 -12 5 -16 14 -9 50 13 50 30 0 20 10 19 27 -2 13 -16 13 -16 3 5
-15 30 -47 49 -98 57 -23 4 -40 10 -37 15 3 4 -2 10 -10 14 -8 3 -15 1 -15 -3
0 -15 -57 -71 -72 -71 -10 0 -9 3 2 10 12 8 9 10 -14 10 -23 0 -27 -3 -23 -20
3 -11 1 -23 -4 -26 -5 -3 -9 -11 -8 -17 5 -43 -3 -140 -10 -128 -5 8 -7 20 -4
28 6 15 -18 38 -54 53 -43 18 -22 45 37 49 15 1 20 8 20 31 0 17 -4 30 -10 30
-5 0 -10 -7 -10 -16 0 -11 -8 -15 -27 -13 -16 2 -38 -2 -50 -9 -30 -17 -33
-16 -34 16 l-1 27 -7 -30 c-6 -28 -10 -30 -49 -30 l-43 0 -4 230 c-5 244 -1
290 21 299 22 8 35 -29 39 -113 4 -74 17 -131 30 -131 4 0 4 4 0 9 -3 6 -1 28
4 50 5 24 5 43 0 47 -5 3 -9 40 -9 83 0 101 14 117 95 107 36 -4 55 -3 55 4 0
6 9 20 20 32 20 22 20 22 20 1 0 -28 21 -44 62 -46 18 -1 39 -7 47 -11 8 -5
-4 24 -26 65 l-41 75 31 27 32 28 -35 -6 c-66 -12 -71 -15 -68 -43 2 -22 -1
-27 -20 -28 -29 -2 -38 12 -16 24 24 13 8 35 -16 22 -10 -5 -32 -10 -49 -10
-17 0 -31 -4 -31 -10 0 -6 -18 -7 -45 -3 -44 6 -46 5 -57 -25 -21 -56 -64 -52
-52 4 5 27 12 32 67 47 117 33 212 55 290 68 43 6 80 16 83 21 3 5 -6 6 -20 2
-19 -4 -28 -2 -32 11 -13 32 48 43 68 12z m-421 -92 c-1 -15 -24 -12 -29 3 -3
9 2 13 12 10 10 -1 17 -7 17 -13z m-401 -20 c-7 -8 -16 -15 -21 -15 -5 0 -9 7
-9 15 0 9 9 15 21 15 18 0 19 -2 9 -15z m54 -27 c-1 -18 -3 -35 -3 -37 -1 -7
-41 37 -41 45 0 10 34 33 41 28 4 -2 5 -18 3 -36z m2266 -3 c0 -23 -37 -42
-52 -27 -15 15 3 47 28 48 19 2 24 -3 24 -21z m117 -22 c-3 -10 -5 -4 -5 12 0
17 2 24 5 18 2 -7 2 -21 0 -30z m-4357 -125 c0 -105 1 -112 25 -134 21 -19 28
-21 53 -12 33 13 62 5 62 -16 0 -11 -13 -14 -65 -12 -36 2 -65 -1 -65 -5 0 -4
-12 -7 -27 -6 -23 2 -28 -3 -33 -28 l-6 -30 -18 27 c-21 32 -16 44 24 53 35 8
33 -4 30 159 -1 92 1 127 9 122 7 -5 11 -48 11 -118z m643 -431 c5 -133 -7
-166 -18 -50 -4 46 -10 71 -15 63 -6 -9 -9 -4 -12 16 -3 27 -6 29 -48 29 -45
0 -45 -1 -48 -37 -2 -29 -8 -37 -24 -40 -12 -2 -23 -9 -26 -16 -3 -9 3 -13 14
-11 11 2 25 0 32 -5 8 -5 21 -1 32 9 13 11 25 15 37 10 10 -5 25 -9 33 -9 12
-1 15 -19 17 -88 l3 -88 -30 0 c-18 0 -37 -8 -47 -19 -9 -11 -20 -18 -25 -15
-13 9 -10 122 5 127 9 4 8 8 -3 16 -19 13 -46 -17 -30 -33 13 -13 13 -63 0
-71 -5 -3 -10 -37 -10 -76 0 -38 -4 -69 -9 -69 -5 0 -12 30 -16 68 -4 37 -13
95 -21 130 -8 37 -13 111 -13 180 1 64 4 107 6 95 5 -28 78 -38 106 -15 13 11
20 13 29 4 14 -14 48 6 41 25 -4 9 -16 11 -44 7 -37 -6 -39 -5 -39 20 0 22 4
26 29 26 16 0 31 -6 34 -12 10 -27 27 8 21 40 -5 24 -11 31 -23 28 -51 -15
-71 -17 -71 -7 0 6 21 16 46 22 25 7 48 18 51 26 7 17 -18 37 -27 22 -11 -16
-139 5 -152 25 -4 6 -8 25 -8 42 0 29 4 33 42 42 32 8 44 8 50 -1 5 -8 14 -5
31 11 13 12 33 22 44 22 22 0 32 21 34 80 1 19 6 -64 10 -185 4 -121 9 -273
12 -338z m1747 543 c0 -5 -4 -10 -10 -10 -5 0 -10 5 -10 10 0 6 5 10 10 10 6
0 10 -4 10 -10z m1910 0 c0 -5 -4 -10 -10 -10 -5 0 -10 5 -10 10 0 6 5 10 10
10 6 0 10 -4 10 -10z m-2616 -165 c5 -91 4 -136 -3 -130 -11 11 -21 193 -13
243 2 18 6 31 7 30 1 -2 5 -66 9 -143z m267 121 c0 -6 -12 -11 -26 -13 -18 -3
-25 1 -25 12 0 12 7 15 25 13 14 -2 26 -7 26 -12z m-322 -10 c9 -11 9 -16 0
-21 -10 -7 -28 10 -29 28 0 12 17 8 29 -7z m-915 -22 c23 -9 20 -34 -4 -34
-13 0 -20 7 -20 20 0 22 1 23 24 14z m100 -3 c8 -12 -17 -61 -30 -61 -9 0 -18
13 -42 63 -5 10 66 9 72 -2z m466 -1 c0 -5 -2 -10 -4 -10 -3 0 -8 5 -11 10 -3
6 -1 10 4 10 6 0 11 -4 11 -10z m702 -31 c-2 -21 1 -40 6 -43 13 -8 13 -164 0
-172 -5 -3 -27 -3 -48 1 l-40 7 0 113 c0 124 6 138 60 132 22 -2 25 -6 22 -38z
m-1117 21 c3 -5 -1 -10 -10 -10 -9 0 -13 5 -10 10 3 6 8 10 10 10 2 0 7 -4 10
-10z m3435 -6 c0 -8 -5 -12 -10 -9 -6 4 -8 11 -5 16 9 14 15 11 15 -7z m-3326
-4 c23 -8 37 -40 19 -40 -5 0 -57 -14 -118 -30 -128 -34 -129 -35 -122 -15 4
8 2 17 -3 20 -6 4 -10 12 -10 18 0 7 8 2 18 -11 20 -26 47 -22 55 9 3 10 11
21 19 23 7 2 33 11 58 19 59 19 55 19 84 7z m1096 -20 c0 -11 -7 -20 -15 -20
-15 0 -21 21 -8 33 12 13 23 7 23 -13z m256 5 c-19 -14 -36 -12 -36 6 0 5 12
9 28 9 26 -1 26 -1 8 -15z m-98 -7 c-3 -7 -30 -17 -61 -23 -79 -14 -84 -28 -7
-20 l65 7 12 -31 c6 -17 9 -43 6 -58 -3 -16 -5 -43 -6 -60 0 -33 -1 -33 -53
-33 -40 0 -56 4 -63 18 -9 14 -12 14 -20 4 -4 -8 -17 -12 -27 -10 -14 2 -20
13 -22 42 -2 22 -12 51 -23 64 -28 36 -24 49 17 55 20 3 44 13 53 21 9 8 36
19 61 24 63 14 72 14 68 0z m-1343 -107 c-9 -8 -156 -41 -184 -41 -30 0 4 18
56 29 32 7 63 15 68 16 24 8 68 4 60 -4z m-435 -51 c0 -4 -7 -10 -15 -14 -11
-4 -15 2 -15 21 0 21 2 24 15 13 8 -7 15 -16 15 -20z m1277 -2 c-3 -8 -6 -5
-6 6 -1 11 2 17 5 13 3 -3 4 -12 1 -19z m-1835 -45 c33 -31 36 -53 8 -53 -11
0 -40 -5 -65 -12 -24 -7 -47 -9 -51 -6 -6 6 65 98 75 98 3 0 18 -12 33 -27z
m540 -15 c-9 -9 -12 -7 -12 12 0 19 3 21 12 12 9 -9 9 -15 0 -24z m1267 -20
c1 -10 -6 -18 -15 -18 -12 0 -15 6 -10 23 3 12 6 29 7 37 1 20 17 -18 18 -42z
m41 -10 c0 -5 -4 -8 -10 -8 -5 0 -10 10 -10 23 0 18 2 19 10 7 5 -8 10 -18 10
-22z m255 20 c2 -2 6 -15 10 -29 l6 -26 -55 10 c-48 9 -56 14 -56 32 0 19 5
21 46 19 25 -1 47 -4 49 -6z m-1219 -7 c-7 -10 -76 -20 -76 -11 0 14 15 20 47
20 19 0 32 -4 29 -9z m1472 -6 c4 -3 9 -60 12 -126 l5 -119 -70 69 c-38 38
-89 80 -112 95 -33 20 -40 30 -36 48 11 52 8 50 104 45 49 -2 93 -8 97 -12z
m-2488 -4 c0 -12 -20 -25 -27 -18 -7 7 6 27 18 27 5 0 9 -4 9 -9z m274 -12
c-8 -13 -43 -16 -47 -4 -4 8 4 12 23 11 15 -1 26 -4 24 -7z m-327 -36 c11 -30
24 -36 88 -37 43 -1 70 4 77 12 18 21 74 14 106 -13 41 -34 100 -152 117 -232
8 -38 14 -99 14 -138 -1 -67 -2 -68 -10 -28 -12 51 -32 71 -55 52 -13 -10 -17
-10 -24 1 -6 9 -10 -4 -12 -40 -3 -54 -10 -53 -23 4 -5 22 -9 26 -15 17 -6
-11 -11 -9 -21 8 -16 24 -31 26 -58 9 -10 -6 -26 -8 -35 -5 -13 5 -15 11 -6
27 8 15 7 27 -6 51 -33 64 24 199 83 199 14 0 21 4 18 10 -11 19 -44 10 -78
-20 -36 -31 -70 -109 -83 -185 -4 -22 -10 -44 -14 -50 -4 -5 -11 -25 -15 -42
l-7 -33 -69 0 c-38 0 -69 4 -69 10 0 5 7 7 16 3 12 -4 15 0 14 18 -5 56 0 78
15 73 25 -10 17 12 -10 24 -22 10 -24 17 -22 54 3 37 7 43 25 42 19 0 22 6 28
58 6 55 8 58 34 58 14 0 30 3 34 7 4 4 25 6 46 4 40 -3 54 11 24 23 -9 3 -43
6 -76 6 -49 0 -59 3 -55 15 4 8 1 17 -5 21 -10 7 -22 9 -83 14 -27 3 -26 3 10
9 51 8 99 5 102 -6z m298 -3 c3 -5 -1 -10 -10 -10 -9 0 -13 5 -10 10 3 6 8 10
10 10 2 0 7 -4 10 -10z m73 -17 c-10 -2 -26 -2 -35 0 -10 3 -2 5 17 5 19 0 27
-2 18 -5z m1853 -40 c9 -8 20 -13 25 -12 15 3 44 -12 44 -23 0 -6 -6 -5 -15 2
-24 20 -18 5 7 -16 12 -10 18 -13 13 -5 -5 8 -4 12 3 10 20 -7 98 -119 135
-194 44 -89 82 -218 90 -305 4 -36 4 -59 1 -52 -9 19 -24 14 -24 -8 0 -21 -24
-27 -36 -9 -9 15 -89 6 -108 -13 -17 -18 -119 -17 -141 2 -9 7 -16 6 -26 -6
-10 -12 -24 -14 -65 -9 l-51 6 -6 -39 c-8 -45 -46 -85 -76 -80 -31 4 -21 23
12 23 28 0 47 18 47 44 0 11 -4 9 -15 -5 -14 -18 -14 -18 -15 7 0 34 -18 41
-75 30 -24 -5 -46 -6 -48 -4 -3 2 -94 -7 -203 -21 -110 -14 -253 -30 -319 -36
-65 -7 -144 -16 -175 -21 -85 -14 -118 -12 -123 9 -2 9 -7 0 -11 -23 -10 -49
-31 -85 -51 -85 -35 0 -63 94 -44 148 11 33 44 51 62 33 7 -7 15 -7 22 -1 7 6
48 12 91 14 44 3 86 7 94 10 8 3 98 12 200 21 102 8 208 18 235 20 28 3 96 9
152 14 75 7 106 14 121 28 53 47 52 47 82 24 36 -26 40 -26 40 -1 0 11 -5 20
-12 20 -9 0 -9 3 -1 11 8 8 19 6 40 -5 17 -8 39 -14 50 -13 18 1 20 5 12 25
-17 43 -31 67 -63 100 -23 25 -26 31 -11 26 18 -7 19 -6 6 10 -21 26 -66 46
-103 47 -18 0 -28 3 -21 5 8 4 9 13 3 28 -11 31 5 46 47 46 23 0 33 -5 33 -16
0 -20 39 -53 64 -54 18 0 18 -1 3 -12 -15 -12 -14 -16 13 -47 17 -18 30 -39
30 -46 0 -7 14 -25 30 -39 36 -30 99 -34 101 -7 1 13 2 13 6 -1 2 -10 9 -18
14 -18 5 0 8 -10 6 -22 -2 -22 2 -23 58 -22 l60 0 3 36 c3 32 1 35 -23 34 -23
-1 -28 6 -49 64 -25 68 -76 181 -76 167 0 -5 -7 -2 -15 7 -8 8 -15 20 -15 27
0 7 -7 21 -17 31 -9 11 -11 18 -5 18 7 0 12 9 12 20 0 11 -7 20 -16 20 -11 0
-14 -6 -9 -20 4 -13 2 -20 -6 -20 -7 0 -2 -12 12 -27 13 -15 -1 -6 -31 21 -70
63 -70 63 -40 44 24 -15 27 -15 43 5 9 12 17 25 17 29 0 17 29 7 47 -15 10
-13 25 -26 33 -31 8 -4 -16 23 -55 60 -60 58 -75 80 -24 37z m-2271 7 c0 -5
-4 -10 -10 -10 -5 0 -10 5 -10 10 0 6 5 10 10 10 6 0 10 -4 10 -10z m558 -35
c-3 -3 -13 -2 -22 1 -14 5 -15 9 -4 15 13 8 36 -6 26 -16z m1307 15 c3 -5 1
-10 -4 -10 -6 0 -11 5 -11 10 0 6 2 10 4 10 3 0 8 -4 11 -10z m-960 -40 c0
-27 -20 -38 -28 -15 -8 20 3 47 17 42 6 -2 11 -14 11 -27z m925 10 c0 -5 -5
-10 -11 -10 -5 0 -7 5 -4 10 3 6 8 10 11 10 2 0 4 -4 4 -10z m-3 -42 c-3 -8
-6 -5 -6 6 -1 11 2 17 5 13 3 -3 4 -12 1 -19z m208 7 c-35 -16 -74 -20 -59 -6
9 9 43 18 74 19 8 0 2 -6 -15 -13z m2216 -22 c26 -14 63 -41 82 -62 63 -65
100 -161 62 -161 -8 0 -15 -6 -15 -12 0 -7 -14 12 -31 42 -41 76 -113 145
-175 171 -32 14 -54 30 -58 42 -4 18 -1 19 42 12 26 -4 68 -18 93 -32z m-2116
18 c6 -11 -26 -31 -49 -31 -9 0 -16 9 -16 20 0 15 7 20 29 20 17 0 32 -4 36
-9z m-2395 -11 c0 -5 -5 -10 -11 -10 -5 0 -7 5 -4 10 3 6 8 10 11 10 2 0 4 -4
4 -10z m875 -68 c21 -71 35 -202 24 -222 -6 -10 -8 -3 -9 22 0 38 -33 219 -46
252 -5 13 -4 17 4 12 6 -3 18 -32 27 -64z m1611 28 c28 -21 62 -53 74 -70 l21
-30 -20 0 c-12 0 -21 5 -21 10 0 16 -50 12 -56 -5 -4 -8 -16 -15 -28 -15 -12
0 -27 -5 -34 -12 -18 -18 -23 -5 -16 40 6 38 9 41 45 47 44 8 48 14 18 35 -46
32 -54 39 -45 40 5 0 33 -18 62 -40z m-286 22 c0 -5 -7 -9 -15 -9 -8 0 -12 4
-9 9 3 4 9 8 15 8 5 0 9 -4 9 -8z m1724 -28 c2 -6 -5 -15 -17 -18 -25 -6 -31
-2 -24 17 6 17 34 18 41 1z m-1919 -44 c3 -5 1 -10 -4 -10 -6 0 -11 5 -11 10
0 6 2 10 4 10 3 0 8 -4 11 -10z m2512 -15 c23 -16 83 -105 83 -123 0 -15 -57
-16 -65 -1 -4 6 2 17 13 25 26 18 18 44 -13 44 -25 0 -39 14 -48 48 -6 26 1
28 30 7z m-4337 -21 c0 -8 -10 -14 -25 -14 -29 0 -35 26 -7 33 22 5 32 -1 32
-19z m3027 -10 c-9 -9 -28 6 -21 18 4 6 10 6 17 -1 6 -6 8 -13 4 -17z m2127
10 c14 -36 6 -52 -26 -59 -18 -4 -38 -11 -44 -16 -14 -11 -124 0 -124 12 0 5
4 9 10 9 5 0 12 11 16 25 9 35 29 44 100 45 47 0 63 -4 68 -16z m-5310 -67 c5
-43 13 -67 21 -67 7 0 15 -7 19 -15 5 -15 35 -10 47 8 4 5 9 5 13 -2 4 -6 3
-11 -3 -11 -6 0 -8 -12 -4 -30 7 -35 -4 -40 -17 -7 -7 18 -9 15 -9 -19 -1 -29
-6 -44 -17 -48 -23 -9 -36 3 -29 24 8 26 -12 61 -33 58 -14 -3 -18 10 -26 74
-4 43 -6 85 -2 94 13 33 31 6 40 -59z m31 63 c3 -5 1 -10 -4 -10 -6 0 -11 5
-11 10 0 6 2 10 4 10 3 0 8 -4 11 -10z m5505 -11 c0 -5 -7 -9 -15 -9 -15 0
-20 12 -9 23 8 8 24 -1 24 -14z m-1877 -22 c-11 -50 -12 -52 -29 -35 -15 14
-14 18 1 42 20 30 35 26 28 -7z m-108 3 c3 -5 1 -10 -4 -10 -6 0 -11 5 -11 10
0 6 2 10 4 10 3 0 8 -4 11 -10z m1162 -32 c14 -26 25 -33 47 -33 16 0 31 -6
34 -12 2 -9 -7 -13 -26 -13 -23 0 -31 -5 -36 -25 -10 -37 -34 -31 -45 13 -23
93 -23 91 6 101 2 1 11 -14 20 -31z m-4297 -15 c0 -7 -4 -13 -10 -13 -5 0 -10
12 -10 28 0 21 2 24 10 12 5 -8 10 -21 10 -27z m-280 -3 c0 -16 -5 -30 -10
-30 -14 0 -24 26 -16 45 10 26 26 16 26 -15z m3132 2 c-2 -14 2 -22 12 -22 8
0 18 -4 21 -10 3 -6 -4 -10 -17 -10 -24 0 -53 44 -42 62 10 16 29 2 26 -20z
m-627 -95 c30 -90 31 -107 6 -79 -10 12 -23 22 -29 22 -6 0 -13 30 -17 68 -4
37 -9 76 -12 87 -13 50 28 -26 52 -98z m2763 107 l23 -7 -23 -12 c-26 -13 -38
-10 -38 11 0 16 5 17 38 8z m227 -14 c17 -7 14 -9 -13 -9 -20 -1 -31 3 -27 9
7 12 13 12 40 0z m-1732 -20 c5 -20 -17 -48 -27 -32 -7 11 4 52 14 52 4 0 10
-9 13 -20z m995 8 c-6 -18 -28 -21 -28 -4 0 9 7 16 16 16 9 0 14 -5 12 -12z
m223 -21 c-13 -13 -26 -3 -16 12 3 6 11 8 17 5 6 -4 6 -10 -1 -17z m-1353 -22
c2 -25 1 -27 -8 -12 -6 9 -18 17 -25 17 -8 0 -15 7 -15 16 0 10 7 14 23 12 16
-2 23 -11 25 -33z m-2555 0 c-6 -16 -16 -19 -26 -8 -9 8 13 34 24 28 4 -3 6
-12 2 -20z m3627 15 c0 -5 -4 -10 -10 -10 -5 0 -10 5 -10 10 0 6 5 10 10 10 6
0 10 -4 10 -10z m-4320 -26 c13 -34 13 -39 -4 -25 -9 8 -31 10 -64 5 -32 -4
-52 -2 -56 5 -5 7 8 11 38 11 34 0 46 4 46 15 0 25 30 17 40 -11z m3128 -6
c-6 -18 -28 -21 -28 -4 0 9 7 16 16 16 9 0 14 -5 12 -12z m723 2 c26 -15 26
-43 -1 -35 -15 5 -23 0 -32 -22 -6 -15 -18 -36 -26 -45 -18 -22 -75 -24 -91
-4 -17 21 2 29 49 21 32 -5 40 -4 40 8 0 16 -10 20 -67 32 -38 8 -39 11 -16
37 18 20 110 26 144 8z m-1251 -51 c0 -5 -17 -9 -37 -8 l-38 1 30 13 c30 13
45 11 45 -6z m-1990 1 c0 -5 -9 -10 -20 -10 -11 0 -20 5 -20 10 0 6 9 10 20
10 11 0 20 -4 20 -10z m-1131 -24 c9 -10 8 -15 -3 -19 -16 -7 -26 1 -26 20 0
17 14 17 29 -1z m701 4 c0 -5 -5 -10 -11 -10 -5 0 -7 5 -4 10 3 6 8 10 11 10
2 0 4 -4 4 -10z m514 -17 c-11 -45 -24 -51 -24 -10 0 26 4 37 15 37 12 0 14
-7 9 -27z m2636 16 c0 -5 -24 -9 -54 -9 -30 0 -61 -3 -70 -6 -10 -4 -16 -1
-16 9 0 13 13 16 70 15 39 0 70 -4 70 -9z m-3336 -41 c-8 -13 -31 -9 -37 6 -3
8 -3 16 0 19 8 8 43 -16 37 -25z m2636 22 c0 -6 -30 -10 -72 -9 -52 1 -66 3
-48 9 36 12 120 12 120 0z m-2766 -52 c12 -77 47 -182 75 -223 23 -34 32 -40
63 -40 20 0 34 -3 31 -7 -2 -5 -21 -8 -42 -8 -26 0 -44 7 -59 23 -42 44 -92
192 -92 270 0 50 15 40 24 -15z m-54 31 c0 -14 -30 -38 -47 -39 -7 0 -13 9
-13 20 0 19 -4 20 -82 14 -60 -5 -79 -4 -74 4 10 16 216 17 216 1z m828 -26
c-10 -2 -26 -2 -35 0 -10 3 -2 5 17 5 19 0 27 -2 18 -5z m2017 -3 c-16 -4 -61
-8 -100 -8 -52 0 -62 2 -40 8 17 4 62 8 100 8 52 0 62 -2 40 -8z m1590 0 c-3
-5 -10 -10 -16 -10 -5 0 -9 5 -9 10 0 6 7 10 16 10 8 0 12 -4 9 -10z m-960
-49 c37 -8 35 -9 -27 -10 -40 -1 -68 3 -68 9 0 12 39 12 95 1z m-410 -11 c-16
-4 -39 -8 -50 -8 l-20 -1 20 9 c11 5 34 8 50 8 l30 0 -30 -8z m515 0 c0 -5 -4
-10 -10 -10 -5 0 -10 5 -10 10 0 6 5 10 10 10 6 0 10 -4 10 -10z m55 -30 c-11
-5 -47 -8 -80 -8 -70 0 -32 12 50 15 36 1 44 -1 30 -7z m840 -10 l30 -7 -25
-10 c-14 -6 -27 -7 -30 -2 -3 4 -17 12 -30 18 l-25 10 25 -1 c14 0 39 -4 55
-8z m-3594 -53 c-13 -13 -26 -3 -16 12 3 6 11 8 17 5 6 -4 6 -10 -1 -17z m-21
-17 c49 -6 44 -7 -47 -9 -63 0 -103 3 -103 9 0 11 69 12 150 0z m1980 -39 c0
-14 -41 -23 -105 -21 -65 2 -70 3 -60 19 8 13 165 15 165 2z m-1167 -133 c16
-50 43 -116 59 -146 63 -111 182 -212 250 -212 29 0 20 -6 -22 -14 -27 -4 -31
-3 -20 5 12 9 11 10 -8 6 -14 -3 -20 -1 -15 6 4 6 0 8 -10 4 -9 -3 -16 -2 -14
4 2 9 -18 23 -77 50 -16 8 -51 45 -77 83 -74 104 -145 306 -108 306 9 0 25
-35 42 -92z m1105 47 c-2 -2 -21 1 -43 5 -37 7 -38 8 -9 9 20 1 35 8 40 19 6
15 8 14 12 -6 2 -13 2 -25 0 -27z m25 15 c-7 -28 -13 -25 -13 6 0 14 4 23 9
20 5 -3 7 -15 4 -26z m-2056 -16 c-3 -3 -12 -4 -19 -1 -8 3 -5 6 6 6 11 1 17
-2 13 -5z m-987 -68 c0 -8 -4 -18 -10 -21 -5 -3 -10 -4 -10 -1 0 2 -3 11 -6
20 -4 11 -1 16 10 16 9 0 16 -6 16 -14z m780 -12 c0 -8 -4 -14 -10 -14 -5 0
-10 9 -10 21 0 11 5 17 10 14 6 -3 10 -13 10 -21z m-62 -11 c-16 -2 -40 -2
-55 0 -16 2 -3 4 27 4 30 0 43 -2 28 -4z m-308 -27 c0 -17 -24 -38 -33 -29
-15 15 -6 43 13 43 11 0 20 -6 20 -14z m1268 -3 c-10 -2 -26 -2 -35 0 -10 3
-2 5 17 5 19 0 27 -2 18 -5z m152 -3 c0 -5 -7 -7 -15 -4 -8 4 -15 8 -15 10 0
2 7 4 15 4 8 0 15 -4 15 -10z m-522 -27 c-10 -2 -28 -2 -40 0 -13 2 -5 4 17 4
22 1 32 -1 23 -4z m-716 -63 c57 -11 114 -20 128 -21 24 -1 24 -1 -4 -9 -16
-5 -36 -5 -45 -1 -8 5 -25 5 -37 1 -20 -8 -210 -5 -244 4 -66 17 -67 19 -20
32 65 18 107 16 222 -6z m-135 -106 c-3 -3 -12 -4 -19 -1 -8 3 -5 6 6 6 11 1
17 -2 13 -5z m33 -4 c0 -5 -5 -10 -11 -10 -5 0 -7 5 -4 10 3 6 8 10 11 10 2 0
4 -4 4 -10z m1487 -72 c26 -25 29 -38 8 -38 -9 0 -12 6 -9 15 4 10 -4 20 -27
30 -23 9 -28 14 -15 15 11 0 30 -10 43 -22z m-752 -8 c-3 -5 -21 -9 -38 -9
l-32 2 35 7 c19 4 36 8 38 9 2 0 0 -3 -3 -9z m105 -58 c0 -4 19 -6 43 -5 l42
3 -30 -15 c-32 -15 -82 -17 -130 -5 l-30 8 33 1 c17 0 32 6 32 11 0 6 9 10 20
10 11 0 20 -3 20 -8z m537 -7 c0 -8 -4 -12 -9 -9 -5 3 -6 10 -3 15 9 13 12 11
12 -6z m2533 1 c0 -11 -19 -15 -25 -6 -3 5 1 10 9 10 9 0 16 -2 16 -4z m126
-18 c3 -4 -6 -5 -20 -4 -15 2 -30 6 -34 10 -3 4 5 6 20 4 15 -2 30 -7 34 -10z
m138 -7 c3 -4 18 -6 33 -4 22 4 25 2 13 -6 -13 -10 -13 -12 0 -21 13 -9 13
-10 0 -11 -8 -1 -21 -1 -27 0 -7 1 -13 -3 -13 -9 0 -5 -5 -9 -12 -7 -7 1 -12
-2 -13 -8 -1 -23 -17 -36 -30 -25 -9 7 -16 6 -24 -4 -9 -11 -9 -16 1 -22 19
-12 37 -13 44 -3 3 5 11 6 17 2 8 -5 8 -2 -1 9 -15 18 2 37 30 33 10 -2 16 2
15 8 -1 8 8 10 23 8 14 -2 35 -4 47 -5 12 0 20 -2 18 -5 -9 -8 17 -31 28 -24
6 3 7 1 3 -6 -4 -6 -11 -9 -16 -6 -5 3 -11 1 -15 -5 -10 -17 -24 -1 -20 21 4
21 4 21 -16 3 -12 -11 -23 -18 -25 -16 -3 1 -12 -2 -22 -7 -11 -7 -12 -11 -4
-11 7 0 10 -5 7 -10 -4 -6 -11 -8 -16 -4 -5 3 -8 0 -7 -7 4 -17 -22 -19 -49
-3 -17 11 -23 11 -32 0 -6 -7 -9 -16 -6 -19 3 -4 2 -5 -2 -2 -3 3 -13 -1 -22
-7 -13 -10 -14 -10 -4 1 8 9 9 21 3 37 -6 15 -5 26 1 30 7 4 6 10 -1 19 -10
11 -8 13 9 10 11 -2 23 1 26 6 4 5 12 6 18 2 9 -5 8 -2 0 8 -10 13 -9 20 7 37
14 14 16 22 7 25 -7 3 -5 6 5 6 9 1 19 -3 22 -8z m-257 -7 c-3 -3 -12 -4 -19
-1 -8 3 -5 6 6 6 11 1 17 -2 13 -5z m373 -10 c0 -2 -9 -4 -20 -4 -11 0 -20 4
-20 9 0 5 9 7 20 4 11 -3 20 -7 20 -9z m-3357 -1 c-7 -2 -19 -2 -25 0 -7 3 -2
5 12 5 14 0 19 -2 13 -5z m534 1 c-3 -3 -12 -4 -19 -1 -8 3 -5 6 6 6 11 1 17
-2 13 -5z m2376 -11 c-7 -2 -19 -2 -25 0 -7 3 -2 5 12 5 14 0 19 -2 13 -5z
m711 -65 c-4 -5 -9 -7 -12 -4 -3 3 -12 0 -21 -7 -14 -10 -14 -10 -4 4 13 16
46 23 37 7z m-409 -10 c5 4 5 2 2 -5 -6 -9 -18 -10 -45 -4 -2 1 0 6 3 11 5 8
11 8 19 1 7 -6 17 -7 21 -3z m123 2 c-2 -5 10 -20 27 -34 25 -20 28 -26 16
-40 -7 -9 -17 -14 -21 -11 -5 3 -20 -9 -34 -26 -15 -18 -31 -27 -37 -23 -8 5
-9 3 -4 -7 8 -12 6 -12 -8 -1 -9 8 -21 11 -26 8 -5 -4 -12 -2 -15 2 -3 5 -17
8 -32 6 l-26 -3 33 35 c23 24 36 31 45 23 8 -7 14 -6 20 2 5 8 3 10 -7 4 -8
-5 -4 3 8 16 12 13 22 29 22 34 1 6 5 10 10 10 5 0 13 3 17 8 10 10 14 9 12
-3z m465 -35 c-3 -9 -8 -14 -10 -11 -3 3 -2 9 2 15 9 16 15 13 8 -4z m58 -18
c-10 -9 -11 -8 -5 6 3 10 9 15 12 12 3 -3 0 -11 -7 -18z m-327 -13 c-2 -26
-14 -47 -14 -27 0 13 -25 11 -37 -2 -4 -4 -2 -5 5 -1 17 10 15 -9 -3 -24 -13
-11 -14 -10 -9 3 7 19 -16 17 -41 -3 -9 -8 -23 -15 -31 -16 -11 -2 -11 2 -3
18 8 15 13 17 19 8 6 -9 11 -7 20 10 9 16 14 19 20 11 5 -10 9 -9 13 2 4 12 0
15 -14 12 -13 -3 -19 0 -16 8 3 7 11 10 18 9 39 -10 49 -9 60 4 16 19 17 18
13 -12z m-1756 -8 c8 -8 -47 -5 -83 4 -23 6 -17 7 23 5 30 -2 57 -6 60 -9z
m1652 2 c0 -18 -2 -23 -10 -21 -5 2 -18 -10 -30 -25 -21 -26 -22 -27 -37 -7
-13 17 -15 17 -9 2 3 -11 2 -16 -4 -12 -6 3 -7 -1 -4 -9 3 -9 11 -13 18 -9 6
3 8 3 4 -1 -3 -4 -9 -6 -11 -4 -3 2 -17 -8 -31 -21 -14 -14 -26 -21 -26 -16 0
5 -12 -2 -27 -16 -37 -34 -18 -4 41 63 27 31 53 55 56 53 4 -3 15 4 24 14 16
18 46 24 46 9z m321 -11 c-10 -9 -11 -8 -5 6 3 10 9 15 12 12 3 -3 0 -11 -7
-18z m-2111 -8 c12 -8 10 -9 -8 -4 -15 4 -24 1 -28 -9 -3 -9 -10 -13 -16 -10
-5 3 -1 12 9 20 22 16 24 16 43 3z m55 -16 c-11 -3 -24 -9 -29 -14 -6 -5 -14
-9 -20 -9 -5 0 -1 7 10 15 10 8 28 14 39 14 l20 -1 -20 -5z m2087 -12 c-4 -12
-7 -12 -10 -2 -3 10 -10 7 -24 -10 l-19 -24 12 27 c12 28 52 37 41 9z m50 0
c-4 -10 -7 -11 -10 -3 -2 7 -8 10 -13 6 -5 -3 -9 -1 -9 5 0 5 9 9 19 8 12 -1
17 -6 13 -16z m-1965 -13 c-12 -13 -24 -18 -26 -13 -2 6 -9 14 -15 18 -7 6 -4
7 7 3 9 -3 17 -1 17 4 0 6 9 10 20 10 18 0 18 -1 -3 -22z m53 -8 c0 -5 -5 -10
-11 -10 -5 0 -7 5 -4 10 3 6 8 10 11 10 2 0 4 -4 4 -10z m1741 -13 c-10 -9
-11 -8 -5 6 3 10 9 15 12 12 3 -3 0 -11 -7 -18z m-1712 -13 c2 -2 -14 -4 -37
-4 -23 0 -42 5 -42 10 0 10 67 4 79 -6z m1405 -29 c-9 -14 -19 -23 -22 -20 -5
4 26 45 35 45 2 0 -4 -11 -13 -25z m389 0 c-3 -9 -8 -14 -10 -11 -3 3 -2 9 2
15 9 16 15 13 8 -4z m-92 -22 c-12 -20 -14 -14 -5 12 4 9 9 14 11 11 3 -2 0
-13 -6 -23z m50 -6 c-10 -9 -11 -8 -5 6 3 10 9 15 12 12 3 -3 0 -11 -7 -18z
m-170 -14 c-5 -10 -17 -27 -26 -38 -16 -19 -17 -19 -3 5 26 46 29 50 34 50 3
0 0 -8 -5 -17z m19 -13 c-6 -11 -13 -20 -16 -20 -2 0 0 9 6 20 6 11 13 20 16
20 2 0 0 -9 -6 -20z m19 -15 c-12 -19 -23 -35 -25 -35 -6 0 14 40 29 58 18 23
16 12 -4 -23z m31 5 c-6 -11 -13 -20 -16 -20 -2 0 0 9 6 20 6 11 13 20 16 20
2 0 0 -9 -6 -20z m-247 -115 c-3 -9 -8 -14 -10 -11 -3 3 -2 9 2 15 9 16 15 13
8 -4z m30 0 c-3 -9 -8 -14 -10 -11 -3 3 -2 9 2 15 9 16 15 13 8 -4z m43 -72
c-18 -35 -45 -70 -46 -60 0 10 49 87 55 87 3 0 -1 -12 -9 -27z m37 7 c-3 -10
-12 -25 -19 -31 -12 -10 -13 -8 -8 7 7 19 24 44 29 44 2 0 1 -9 -2 -20z m12
-29 c-8 -17 -19 -33 -25 -36 -5 -3 -1 10 11 29 25 43 36 48 14 7z m157 -13
c-7 -7 -12 -8 -12 -2 0 14 12 26 19 19 2 -3 -1 -11 -7 -17z m26 -8 c-7 -10
-14 -18 -15 -16 -6 6 9 36 18 36 5 0 4 -9 -3 -20z m-135 -10 c-5 -20 -21 -36
-28 -28 -5 4 23 48 30 48 2 0 1 -9 -2 -20z m158 -3 c-10 -9 -11 -8 -5 6 3 10
9 15 12 12 3 -3 0 -11 -7 -18z m-201 -16 c-15 -30 -30 -35 -17 -6 7 14 16 25
20 25 4 0 3 -9 -3 -19z m61 -8 c-8 -15 -10 -15 -11 -2 0 17 10 32 18 25 2 -3
-1 -13 -7 -23z m39 7 c0 -5 -5 -10 -11 -10 -5 0 -7 5 -4 10 3 6 8 10 11 10 2
0 4 -4 4 -10z m-134 -119 c-14 -22 -26 -45 -26 -50 0 -5 -7 -15 -16 -22 -13
-10 -11 -2 6 31 30 59 52 92 57 86 2 -2 -7 -22 -21 -45z m48 24 c-4 -8 -8 -15
-10 -15 -2 0 -4 7 -4 15 0 8 4 15 10 15 5 0 7 -7 4 -15z m69 0 c-3 -9 -8 -14
-10 -11 -3 3 -2 9 2 15 9 16 15 13 8 -4z m23 -27 c-19 -26 -20 -20 -5 19 6 15
13 22 16 16 2 -7 -3 -23 -11 -35z m-81 -18 c-27 -53 -41 -67 -25 -25 10 27 40
75 46 75 3 0 -7 -22 -21 -50z m125 40 c0 -5 -5 -10 -11 -10 -5 0 -7 5 -4 10 3
6 8 10 11 10 2 0 4 -4 4 -10z m-162 -45 c-6 -14 -13 -23 -16 -21 -7 7 9 46 18
46 5 0 4 -11 -2 -25z m234 -37 c-7 -7 -12 -8 -12 -2 0 14 12 26 19 19 2 -3 -1
-11 -7 -17z m-202 -43 c-7 -9 -15 -13 -18 -10 -3 2 1 11 8 20 7 9 15 13 18 10
3 -2 -1 -11 -8 -20z m-44 -13 c-18 -16 -18 -16 -6 6 6 13 14 21 18 18 3 -4 -2
-14 -12 -24z"/>
<path d="M550 3699 c0 -5 5 -7 10 -4 6 3 10 8 10 11 0 2 -4 4 -10 4 -5 0 -10
-5 -10 -11z"/>
<path d="M525 3581 c-7 -12 29 -33 39 -24 3 3 6 12 6 20 0 15 -36 18 -45 4z"/>
<path d="M816 3545 c-3 -8 -12 -15 -20 -15 -21 0 -30 -19 -16 -35 18 -22 39
-18 50 9 7 18 14 23 29 19 14 -4 21 -1 21 10 0 27 -54 37 -64 12z"/>
<path d="M891 3506 c-10 -11 -7 -17 11 -30 32 -22 38 -20 38 14 0 23 -5 30
-19 30 -10 0 -24 -6 -30 -14z"/>
<path d="M540 3501 c0 -12 50 -44 57 -37 9 8 -27 46 -44 46 -7 0 -13 -4 -13
-9z"/>
<path d="M660 3490 c0 -5 5 -10 11 -10 5 0 7 5 4 10 -3 6 -8 10 -11 10 -2 0
-4 -4 -4 -10z"/>
<path d="M305 3481 c-6 -11 9 -23 19 -14 9 9 7 23 -3 23 -6 0 -12 -4 -16 -9z"/>
<path d="M560 3350 c0 -12 45 -24 65 -16 29 11 15 26 -25 26 -22 0 -40 -4 -40
-10z"/>
<path d="M396 3304 c-10 -27 -7 -36 9 -20 8 8 15 19 15 25 0 17 -17 13 -24 -5z"/>
<path d="M288 3274 c12 -17 19 -34 15 -38 -3 -3 1 -6 10 -6 28 0 15 27 -28 60
-17 14 -17 12 3 -16z"/>
<path d="M620 3280 c0 -5 5 -10 10 -10 6 0 10 5 10 10 0 6 -4 10 -10 10 -5 0
-10 -4 -10 -10z"/>
<path d="M733 3123 c15 -2 37 -2 50 0 12 2 0 4 -28 4 -27 0 -38 -2 -22 -4z"/>
<path d="M912 3107 c9 -7 18 -26 21 -42 3 -24 4 -21 6 13 1 37 -1 42 -21 42
-21 -1 -21 -2 -6 -13z"/>
<path d="M845 3009 c-16 -5 -47 -11 -68 -14 -45 -7 -45 -30 0 -31 17 -1 38 -4
47 -7 10 -4 16 -1 16 8 0 15 5 17 47 19 13 1 23 5 24 11 1 15 -33 22 -66 14z"/>
<path d="M932 2820 c0 -14 2 -19 5 -12 2 6 2 18 0 25 -3 6 -5 1 -5 -13z"/>
<path d="M914 2325 c-10 -8 -14 -15 -7 -15 7 0 1 -11 -12 -25 -14 -13 -25 -28
-25 -33 0 -13 80 -20 87 -9 7 12 -7 97 -16 97 -4 0 -16 -7 -27 -15z"/>
<path d="M5340 3446 c-18 -22 -5 -48 22 -44 17 2 23 10 23 28 0 29 -26 38 -45
16z"/>
<path d="M4247 3388 c-7 -23 5 -48 24 -48 19 0 24 16 13 44 -7 19 -31 21 -37
4z"/>
<path d="M5701 3369 c-19 -8 -21 -12 -11 -24 16 -20 36 -19 44 2 9 23 -5 33
-33 22z"/>
<path d="M4906 3345 c-6 -17 17 -31 34 -20 5 3 10 13 10 21 0 19 -36 18 -44
-1z"/>
<path d="M5628 3353 c-20 -5 -23 -18 -7 -29 6 -3 18 0 26 9 17 16 7 26 -19 20z"/>
<path d="M4537 3336 c-8 -20 22 -51 35 -38 14 14 5 46 -13 50 -9 2 -19 -4 -22
-12z"/>
<path d="M5455 3310 c-8 -12 20 -24 35 -15 6 3 8 11 5 16 -8 12 -32 12 -40 -1z"/>
<path d="M5383 3288 c2 -7 10 -13 17 -13 7 0 15 6 18 13 2 7 -5 12 -18 12 -13
0 -20 -5 -17 -12z"/>
<path d="M5305 3270 c-8 -12 20 -24 35 -15 5 3 10 10 10 16 0 12 -37 12 -45
-1z"/>
<path d="M4652 3142 c-9 -6 -6 -12 13 -20 27 -12 28 -12 19 12 -7 18 -13 19
-32 8z"/>
<path d="M1437 3581 c3 -14 1 -21 -8 -21 -11 0 -11 -2 1 -10 9 -5 19 -5 26 1
6 5 18 7 26 4 14 -6 46 21 37 30 -3 2 -23 7 -46 11 -39 6 -41 5 -36 -15z"/>
<path d="M1683 3573 c-18 -6 -16 -23 1 -23 17 0 30 16 19 23 -5 2 -14 2 -20 0z"/>
<path d="M1628 3512 c-10 -2 -18 -8 -18 -13 0 -12 57 -12 64 0 7 10 -22 19
-46 13z"/>
<path d="M1565 3500 c-3 -5 3 -10 15 -10 12 0 18 5 15 10 -3 6 -10 10 -15 10
-5 0 -12 -4 -15 -10z"/>
<path d="M1569 3438 c0 -2 -2 -10 -4 -18 -2 -8 -6 -22 -10 -31 -5 -14 0 -15
42 -8 26 4 56 8 66 8 34 2 17 26 -19 28 -20 1 -42 7 -47 12 -10 10 -26 15 -28
9z"/>
<path d="M2015 3390 c-7 -11 2 -30 14 -30 5 0 11 9 14 20 5 21 -16 29 -28 10z"/>
<path d="M1650 3350 c0 -5 5 -10 10 -10 6 0 10 5 10 10 0 6 -4 10 -10 10 -5 0
-10 -4 -10 -10z"/>
<path d="M1698 3352 c-29 -6 -20 -19 17 -26 19 -4 41 -14 50 -22 10 -10 24
-14 39 -10 14 3 35 2 48 -3 16 -7 18 -10 6 -10 -9 -1 -20 -6 -23 -12 -12 -19
3 -21 30 -3 26 17 26 17 6 35 -11 11 -27 19 -35 19 -7 0 -17 7 -20 16 -4 10
-12 14 -22 10 -9 -3 -21 -3 -27 1 -13 8 -44 10 -69 5z"/>
<path d="M1570 3292 c0 -17 26 -32 56 -32 42 0 53 17 19 30 -32 12 -75 13 -75
2z"/>
<path d="M1685 3261 c-3 -5 -1 -12 5 -16 12 -7 30 2 30 16 0 12 -27 12 -35 0z"/>
<path d="M1585 3220 c3 -5 8 -10 11 -10 2 0 4 5 4 10 0 6 -5 10 -11 10 -5 0
-7 -4 -4 -10z"/>
<path d="M1640 3170 c0 -5 7 -10 16 -10 8 0 12 5 9 10 -3 6 -10 10 -16 10 -5
0 -9 -4 -9 -10z"/>
<path d="M1684 3125 c3 -22 13 -28 33 -21 17 7 17 8 -1 22 -25 18 -35 18 -32
-1z"/>
<path d="M1640 3109 c0 -5 5 -7 10 -4 6 3 10 8 10 11 0 2 -4 4 -10 4 -5 0 -10
-5 -10 -11z"/>
<path d="M1162 3358 c3 -7 12 -14 21 -16 12 -2 15 1 11 12 -7 19 -38 22 -32 4z"/>
<path d="M1183 3305 c-22 -10 -30 -24 -15 -26 31 -6 69 -5 82 2 10 6 11 9 3
10 -7 1 -18 2 -23 3 -6 0 -14 6 -18 11 -5 7 -14 7 -29 0z"/>
<path d="M5316 3151 c-14 -5 -16 -10 -7 -15 15 -9 41 -1 41 14 0 11 -7 12 -34
1z"/>
<path d="M5248 3133 c6 -2 18 -2 25 0 6 3 1 5 -13 5 -14 0 -19 -2 -12 -5z"/>
<path d="M5162 3123 c-12 -2 -20 -8 -17 -13 5 -8 71 3 82 14 7 7 -29 6 -65 -1z"/>
<path d="M2508 3063 c-3 -21 -1 -51 3 -68 5 -22 7 -13 8 38 1 74 -4 88 -11 30z"/>
<path d="M2512 2935 c0 -16 2 -22 5 -12 2 9 2 23 0 30 -3 6 -5 -1 -5 -18z"/>
<path d="M4725 3020 c3 -5 8 -10 11 -10 2 0 4 5 4 10 0 6 -5 10 -11 10 -5 0
-7 -4 -4 -10z"/>
<path d="M4563 3003 c-16 -6 -5 -33 13 -33 8 0 14 6 14 14 0 18 -11 25 -27 19z"/>
<path d="M4446 2971 c-3 -4 6 -13 19 -19 22 -10 25 -9 25 8 0 20 -33 29 -44
11z"/>
<path d="M4340 2943 c0 -4 5 -15 10 -23 8 -13 10 -13 10 2 0 9 -4 20 -10 23
-5 3 -10 3 -10 -2z"/>
<path d="M4096 2823 c9 -38 14 -42 14 -10 0 14 -5 29 -10 32 -7 4 -8 -3 -4
-22z"/>
<path d="M4335 2790 c3 -5 10 -10 16 -10 5 0 9 5 9 10 0 6 -7 10 -16 10 -8 0
-12 -4 -9 -10z"/>
<path d="M4099 2743 c-5 -28 -3 -33 15 -33 13 0 17 3 10 8 -7 4 -14 18 -16 32
-3 23 -4 22 -9 -7z"/>
<path d="M4237 2724 c-4 -4 -7 -18 -7 -31 0 -29 -30 -31 -37 -2 -4 15 -12 19
-32 17 -42 -5 -30 -29 26 -51 30 -11 55 -27 58 -38 8 -25 -12 -59 -35 -59 -10
0 -22 -5 -25 -11 -4 -6 4 -9 22 -7 25 3 29 -1 38 -39 15 -60 21 -60 28 -2 4
28 8 53 9 54 2 2 17 6 35 10 30 6 33 4 48 -30 8 -21 12 -42 8 -49 -4 -7 -3 -8
4 -1 13 13 23 104 12 110 -4 3 -11 33 -15 66 -9 80 -21 84 -16 5 4 -57 2 -65
-19 -80 -30 -20 -65 -21 -73 0 -10 26 -7 34 13 34 10 0 21 9 24 20 4 17 1 19
-19 14 -20 -5 -24 -2 -25 17 -1 32 -13 62 -22 53z"/>
<path d="M4664 2685 c32 -30 36 -31 36 -6 0 19 -18 31 -47 31 -11 0 -8 -7 11
-25z"/>
<path d="M4485 2639 c-4 -6 -5 -13 -2 -16 7 -7 27 6 27 18 0 12 -17 12 -25 -2z"/>
<path d="M4437 2593 c-14 -14 -6 -24 38 -45 30 -14 44 -27 40 -36 -3 -7 -2
-32 1 -54 6 -33 9 -37 20 -26 7 7 14 27 16 45 2 26 5 30 19 23 22 -12 33 -42
18 -50 -12 -8 29 -19 47 -13 13 4 2 89 -14 105 -9 9 -17 7 -33 -8 -21 -19 -21
-18 -41 9 -12 17 -29 27 -44 27 -14 0 -27 7 -30 15 -6 16 -26 20 -37 8z"/>
<path d="M4095 2540 c-27 -7 -27 -8 -5 -8 14 0 36 4 50 8 20 6 21 8 5 8 -11 0
-33 -4 -50 -8z"/>
<path d="M4798 2463 c12 -2 30 -2 40 0 9 3 -1 5 -23 4 -22 0 -30 -2 -17 -4z"/>
<path d="M4143 2390 c0 -25 2 -35 4 -22 2 12 2 32 0 45 -2 12 -4 2 -4 -23z"/>
<path d="M4151 2324 c0 -11 3 -14 6 -6 3 7 2 16 -1 19 -3 4 -6 -2 -5 -13z"/>
<path d="M4151 2234 c0 -11 3 -14 6 -6 3 7 2 16 -1 19 -3 4 -6 -2 -5 -13z"/>
<path d="M4642 2215 c0 -16 2 -22 5 -12 2 9 2 23 0 30 -3 6 -5 -1 -5 -18z"/>
<path d="M4283 2180 c0 -25 2 -35 4 -22 2 12 2 32 0 45 -2 12 -4 2 -4 -23z"/>
<path d="M4401 2194 c0 -11 3 -14 6 -6 3 7 2 16 -1 19 -3 4 -6 -2 -5 -13z"/>
<path d="M4163 2165 c0 -22 2 -30 4 -17 2 12 2 30 0 40 -3 9 -5 -1 -4 -23z"/>
<path d="M1465 2780 c-9 -15 3 -62 14 -56 5 3 11 15 14 25 6 24 -17 49 -28 31z"/>
<path d="M2480 2156 c0 -2 7 -7 16 -10 8 -3 12 -2 9 4 -6 10 -25 14 -25 6z"/>
<path d="M1782 2045 c0 -16 2 -22 5 -12 2 9 2 23 0 30 -3 6 -5 -1 -5 -18z"/>
<path d="M1828 1903 c7 -3 16 -2 19 1 4 3 -2 6 -13 5 -11 0 -14 -3 -6 -6z"/>
<path d="M3840 2841 c0 -2 8 -10 17 -17 13 -9 22 -9 30 -2 21 17 15 27 -17 25
-16 -1 -30 -4 -30 -6z"/>
<path d="M3455 2611 c-3 -5 4 -11 16 -13 19 -3 32 -20 58 -78 10 -22 11 -20 7
18 -3 30 0 42 9 42 21 0 39 -164 19 -178 -9 -7 -9 -42 1 -148 4 -40 3 -64 -4
-69 -6 -3 -11 -14 -11 -25 0 -14 5 -17 21 -13 12 4 25 0 30 -8 6 -9 8 5 7 39
-1 30 -6 55 -9 58 -4 2 -5 13 -2 23 3 10 0 22 -7 26 -8 5 -8 11 1 22 8 9 9 17
3 21 -11 8 -12 62 -1 79 4 6 4 18 1 27 -9 25 43 21 56 -4 11 -21 42 -17 33 6
-6 16 34 34 75 34 15 0 34 5 42 10 17 11 -122 7 -155 -5 -40 -14 -44 -14 -50
6 -10 31 4 89 22 96 10 4 -7 13 -48 24 -72 21 -105 23 -114 10z"/>
<path d="M3848 2453 c6 -2 18 -2 25 0 6 3 1 5 -13 5 -14 0 -19 -2 -12 -5z"/>
<path d="M3482 2438 c6 -18 25 -20 31 -3 5 10 0 15 -14 15 -12 0 -19 -5 -17
-12z"/>
<path d="M3356 2429 c-22 -5 -42 -12 -45 -15 -10 -10 133 7 144 17 12 11 -46
10 -99 -2z"/>
<path d="M3718 2433 c7 -3 16 -2 19 1 4 3 -2 6 -13 5 -11 0 -14 -3 -6 -6z"/>
<path d="M3530 2386 c0 -22 3 -27 11 -19 8 8 8 16 0 30 -9 16 -10 14 -11 -11z"/>
<path d="M3180 2390 c-20 -6 -15 -8 23 -7 26 0 47 4 47 9 0 10 -36 9 -70 -2z"/>
<path d="M3881 2264 c0 -11 3 -14 6 -6 3 7 2 16 -1 19 -3 4 -6 -2 -5 -13z"/>
<path d="M3082 2225 c0 -16 3 -52 8 -80 6 -41 7 -44 8 -15 0 19 -3 55 -7 80
-6 33 -9 37 -9 15z"/>
<path d="M3892 2060 c0 -14 2 -19 5 -12 2 6 2 18 0 25 -3 6 -5 1 -5 -13z"/>
<path d="M1273 2513 c-3 -10 -15 -26 -27 -36 -19 -17 -19 -18 -2 -13 11 4 26
0 37 -10 25 -23 39 -9 39 37 0 33 -3 39 -20 39 -11 0 -23 -8 -27 -17z"/>
<path d="M1278 1993 c7 -3 16 -2 19 1 4 3 -2 6 -13 5 -11 0 -14 -3 -6 -6z"/>
<path d="M2900 2350 c0 -5 5 -10 10 -10 6 0 10 5 10 10 0 6 -4 10 -10 10 -5 0
-10 -4 -10 -10z"/>
<path d="M454 2091 c-2 -2 -3 -25 -3 -50 l2 -46 6 40 c5 31 10 40 25 40 11 0
21 6 23 12 3 9 -5 12 -22 11 -14 -1 -28 -4 -31 -7z"/>
<path d="M640 1971 c0 -5 7 -12 16 -15 14 -5 15 -4 4 9 -14 17 -20 19 -20 6z"/>
<path d="M462 1935 c0 -16 2 -22 5 -12 2 9 2 23 0 30 -3 6 -5 -1 -5 -18z"/>
<path d="M2750 2046 c0 -2 17 -37 38 -77 36 -70 52 -112 84 -219 7 -25 14 -37
16 -27 2 9 -6 48 -19 85 -30 91 -119 270 -119 238z"/>
<path d="M2737 1962 c-3 -4 6 -21 19 -37 13 -17 24 -25 24 -19 0 5 -9 20 -19
31 -11 12 -17 24 -14 27 4 3 4 6 0 6 -3 0 -8 -3 -10 -8z"/>
<path d="M2443 1905 c0 -8 4 -12 9 -9 4 3 8 9 8 15 0 5 -4 9 -8 9 -5 0 -9 -7
-9 -15z"/>
<path d="M2830 1772 c6 -13 14 -21 18 -18 3 4 -2 14 -12 24 -18 16 -18 16 -6
-6z"/>
<path d="M1430 1385 c-8 -9 -8 -15 -2 -15 12 0 26 19 19 26 -2 2 -10 -2 -17
-11z"/>
<path d="M4875 860 c-3 -5 -1 -10 4 -10 6 0 11 5 11 10 0 6 -2 10 -4 10 -3 0
-8 -4 -11 -10z"/>
<path d="M4993 785 c0 -8 4 -12 9 -9 5 3 6 10 3 15 -9 13 -12 11 -12 -6z"/>
<path d="M4944 763 c3 -4 1 -12 -5 -19 -7 -9 -6 -12 6 -10 14 2 44 25 35 27
-3 0 -13 2 -23 4 -11 2 -16 1 -13 -2z"/>
<path d="M4996 732 c-3 -5 1 -9 9 -9 8 0 12 4 9 9 -3 4 -7 8 -9 8 -2 0 -6 -4
-9 -8z"/>
<path d="M4864 688 l-19 -23 23 19 c21 18 27 26 19 26 -2 0 -12 -10 -23 -22z"/>
<path d="M4965 701 c-3 -6 -14 -8 -24 -6 -10 2 -18 -3 -18 -11 0 -9 4 -11 12
-4 7 5 14 8 17 5 3 -3 11 1 18 10 7 8 10 15 7 15 -3 0 -8 -4 -12 -9z"/>
<path d="M5009 663 c-13 -16 -12 -17 4 -4 16 13 21 21 13 21 -2 0 -10 -8 -17
-17z"/>
<path d="M4949 623 c-13 -16 -12 -17 4 -4 16 13 21 21 13 21 -2 0 -10 -8 -17
-17z"/>
<path d="M5970 2814 c-8 -1 -78 -13 -155 -24 -77 -12 -189 -30 -249 -41 -60
-10 -123 -19 -140 -19 -22 0 -27 -3 -17 -9 13 -8 404 -5 491 4 19 2 50 4 68 4
31 1 32 2 32 46 0 25 -3 44 -7 44 -5 -1 -15 -3 -23 -5z"/>
<path d="M5480 2640 c-82 -8 -120 -17 -120 -29 0 -16 73 -41 123 -42 l52 -1
-50 -14 -50 -14 49 5 c27 3 64 5 83 5 l34 0 -3 48 c-3 54 -2 54 -118 42z"/>
<path d="M5213 2513 c9 -2 25 -2 35 0 9 3 1 5 -18 5 -19 0 -27 -2 -17 -5z"/>
<path d="M5050 2214 c0 -8 5 -12 10 -9 6 4 8 11 5 16 -9 14 -15 11 -15 -7z"/>
<path d="M5968 2213 c6 -2 18 -2 25 0 6 3 1 5 -13 5 -14 0 -19 -2 -12 -5z"/>
<path d="M5640 2179 c0 -5 5 -7 10 -4 6 3 10 8 10 11 0 2 -4 4 -10 4 -5 0 -10
-5 -10 -11z"/>
<path d="M1318 1213 c7 -3 16 -2 19 1 4 3 -2 6 -13 5 -11 0 -14 -3 -6 -6z"/>
<path d="M1402 1151 c7 -12 18 -16 31 -13 13 3 18 1 13 -6 -10 -16 12 -25 27
-10 36 36 27 56 -18 39 -11 -5 -30 -5 -42 0 -20 8 -22 6 -11 -10z"/>
<path d="M1535 1160 c3 -5 10 -10 16 -10 5 0 9 5 9 10 0 6 -7 10 -16 10 -8 0
-12 -4 -9 -10z"/>
<path d="M1537 1116 c-4 -9 -1 -16 5 -16 6 0 19 -7 28 -15 16 -14 18 -14 23 0
5 10 0 15 -13 15 -10 0 -23 7 -28 16 -8 15 -10 15 -15 0z"/>
<path d="M159 1016 c-3 -3 -27 -8 -54 -11 -28 -3 -62 -8 -78 -11 l-27 -6 0
-494 0 -494 876 0 c697 0 874 3 868 13 -6 10 -4 10 7 0 9 -9 49 -13 124 -13
75 0 105 3 95 10 -9 6 -10 10 -3 10 6 0 15 -4 18 -10 7 -12 85 -13 103 -1 11
7 11 9 -2 14 -8 3 -16 2 -18 -2 -2 -5 -28 -1 -58 9 l-55 18 49 -6 c37 -4 47
-2 42 7 -4 6 -16 9 -27 6 -10 -4 -19 -3 -19 2 0 9 -48 33 -67 33 -7 0 -13 -4
-13 -10 0 -5 -10 -10 -22 -10 -18 0 -20 2 -9 9 11 7 7 14 -20 30 -19 12 -41
21 -49 21 -8 0 -22 5 -30 11 -12 8 -8 9 15 6 17 -2 39 -8 50 -12 17 -8 18 -7
8 7 -7 8 -10 17 -8 20 6 5 61 -11 81 -25 8 -4 14 3 18 19 5 19 2 30 -11 40
-22 16 -43 18 -43 3 0 -5 5 -7 11 -3 7 4 10 1 7 -7 -3 -9 -19 -13 -47 -13 -22
1 -41 -2 -41 -8 0 -5 -6 -6 -12 -1 -19 11 -35 13 -118 17 -41 1 -80 -2 -87 -6
-6 -5 -14 -5 -18 2 -3 5 -1 10 5 10 6 0 8 5 4 11 -5 9 2 10 22 5 16 -3 45 -8
64 -11 34 -5 34 -5 7 6 -22 9 -25 14 -17 24 10 12 5 13 -27 10 -31 -4 -33 -3
-13 4 25 9 25 9 -8 16 -23 5 -30 11 -23 18 7 7 15 6 25 -2 12 -10 20 -10 38 0
13 7 26 12 30 11 4 -1 4 6 1 15 -4 10 -2 14 4 10 6 -4 14 -1 16 5 3 8 6 6 6
-5 1 -10 5 -16 11 -12 5 3 6 13 3 21 -5 13 1 14 33 8 42 -7 41 -7 67 -5 21 1
23 21 2 21 -8 0 -15 -4 -15 -10 0 -5 -7 -7 -15 -4 -15 6 -22 26 -7 22 4 -1 17
3 29 10 12 7 33 13 47 14 15 1 26 6 26 11 0 4 5 5 10 2 6 -3 10 -2 10 4 0 5
14 12 30 16 17 4 30 11 30 17 0 6 8 7 17 4 10 -4 14 -3 9 1 -4 4 -17 9 -29 10
-12 0 -56 10 -97 21 -633 173 -760 208 -1025 286 -49 15 -106 34 -125 44 -19
9 -51 17 -70 18 -39 2 -125 25 -340 89 -80 24 -172 51 -204 60 -43 12 -56 19
-45 26 8 5 19 9 24 9 6 0 3 -5 -5 -10 -23 -15 -6 -12 26 4 15 8 32 12 37 9 6
-3 7 -1 3 6 -6 8 0 10 21 6 23 -4 24 -4 8 4 -24 11 -30 12 -36 7z m1516 -726
c3 -5 1 -10 -4 -10 -6 0 -11 5 -11 10 0 6 2 10 4 10 3 0 8 -4 11 -10z m-69
-48 c-2 -1 -16 0 -31 4 -18 4 -23 9 -14 14 11 7 53 -9 45 -18z m261 -158 c-3
-3 -12 -4 -19 -1 -8 3 -5 6 6 6 11 1 17 -2 13 -5z"/>
<path d="M220 1011 c0 -5 9 -7 20 -4 11 3 20 7 20 9 0 2 -9 4 -20 4 -11 0 -20
-4 -20 -9z"/>
<path d="M4493 903 c9 -2 23 -2 30 0 6 3 -1 5 -18 5 -16 0 -22 -2 -12 -5z"/>
<path d="M3940 840 c-8 -5 -10 -10 -5 -10 6 0 17 5 25 10 8 5 11 10 5 10 -5 0
-17 -5 -25 -10z"/>
<path d="M4185 810 c-3 -6 1 -7 9 -4 18 7 21 14 7 14 -6 0 -13 -4 -16 -10z"/>
<path d="M5135 790 c-4 -6 -10 -8 -15 -5 -4 3 -13 -2 -20 -10 -7 -8 -17 -12
-24 -9 -6 3 -3 -1 7 -9 21 -17 53 -15 49 3 -1 7 3 18 9 26 6 8 9 14 6 14 -3 0
-9 -5 -12 -10z"/>
<path d="M4709 757 c-1 -4 -2 -10 -3 -14 -1 -5 -4 -13 -8 -19 -5 -7 2 -10 17
-10 34 2 38 10 15 31 -11 10 -21 15 -21 12z m20 -20 c8 -10 7 -14 -2 -14 -8 0
-14 6 -14 14 0 7 1 13 2 13 2 0 8 -6 14 -13z"/>
<path d="M3618 743 c7 -3 16 -2 19 1 4 3 -2 6 -13 5 -11 0 -14 -3 -6 -6z"/>
<path d="M5196 723 c3 -26 -24 -79 -34 -68 -7 6 -42 -25 -42 -37 0 -5 5 -6 12
-2 8 5 9 2 5 -10 -4 -10 -3 -15 3 -11 6 3 10 2 10 -4 0 -5 -4 -13 -10 -16 -5
-3 -10 -1 -10 5 0 6 -4 8 -10 5 -6 -4 -7 1 -4 12 4 11 -4 6 -20 -12 -31 -37
-34 -55 -3 -29 12 10 16 12 10 4 -19 -21 -15 -35 5 -17 9 8 22 17 27 18 13 3
64 71 64 84 0 6 -11 -3 -25 -20 l-26 -30 16 31 c17 34 51 69 40 41 -4 -12 -1
-15 15 -12 25 5 26 2 5 -31 -9 -13 -14 -27 -11 -30 5 -5 47 57 47 70 0 4 -5 4
-12 0 -8 -5 -9 -2 -4 11 6 16 4 16 -10 4 -16 -13 -16 -12 -7 6 8 15 8 26 0 40
-17 29 -35 28 -31 -2z m-44 -95 c-7 -7 -12 -8 -12 -2 0 14 12 26 19 19 2 -3
-1 -11 -7 -17z"/>
<path d="M2310 727 c0 -8 92 -34 165 -47 39 -7 85 -16 104 -21 44 -11 148 27
128 47 -4 4 -13 1 -22 -6 -8 -7 -21 -10 -29 -7 -10 4 -13 1 -9 -9 3 -7 3 -14
0 -14 -13 0 -304 51 -319 56 -10 3 -18 3 -18 1z"/>
<path d="M3771 708 c-1 -12 -7 -16 -18 -12 -15 5 -16 4 -3 -5 17 -12 35 1 27
21 -4 9 -6 8 -6 -4z"/>
<path d="M3586 688 c3 -4 9 -8 15 -8 5 0 9 4 9 8 0 5 -7 9 -15 9 -8 0 -12 -4
-9 -9z"/>
<path d="M3791 686 c-14 -8 -30 -12 -37 -9 -7 2 -15 -1 -20 -8 -4 -7 -3 -10 4
-5 6 3 22 2 36 -3 20 -8 24 -7 19 4 -3 8 -1 15 5 15 6 0 18 3 28 7 12 4 15 3
10 -5 -5 -8 -2 -10 9 -5 13 5 14 7 3 14 -18 12 -29 11 -57 -5z"/>
<path d="M2348 683 c7 -3 16 -2 19 1 4 3 -2 6 -13 5 -11 0 -14 -3 -6 -6z"/>
<path d="M4165 680 c-3 -5 -1 -10 4 -10 6 0 11 5 11 10 0 6 -2 10 -4 10 -3 0
-8 -4 -11 -10z"/>
<path d="M4696 682 c-3 -5 1 -9 9 -9 8 0 12 4 9 9 -3 4 -7 8 -9 8 -2 0 -6 -4
-9 -8z"/>
<path d="M4611 666 c-7 -8 -8 -17 -3 -20 6 -3 15 1 21 8 7 8 8 17 3 20 -6 3
-15 -1 -21 -8z"/>
<path d="M4135 660 c-3 -5 -1 -10 4 -10 6 0 11 5 11 10 0 6 -2 10 -4 10 -3 0
-8 -4 -11 -10z"/>
<path d="M3703 653 c9 -14 66 -22 73 -11 3 4 -6 8 -20 8 -13 0 -32 3 -42 7
-11 4 -15 3 -11 -4z"/>
<path d="M3854 652 c3 -5 0 -13 -6 -15 -9 -4 -10 -6 -1 -6 17 -1 25 16 12 25
-7 4 -9 3 -5 -4z"/>
<path d="M4399 647 c6 -8 7 -18 3 -22 -4 -5 -1 -5 6 -1 10 6 10 11 1 22 -6 8
-14 14 -16 14 -3 0 0 -6 6 -13z"/>
<path d="M4673 653 c7 -12 -16 -36 -26 -28 -4 3 -5 2 -2 -2 3 -4 13 -8 21 -9
9 -1 13 0 10 3 -3 4 -1 12 5 19 7 8 6 14 -2 20 -7 4 -9 3 -6 -3z"/>
<path d="M5201 629 c-7 -12 -10 -23 -8 -26 3 -3 11 5 17 17 15 28 8 35 -9 9z"/>
<path d="M3810 631 c10 -7 11 -11 3 -11 -7 0 -13 -4 -13 -10 0 -5 7 -7 15 -3
19 7 15 25 -6 31 -11 3 -11 2 1 -7z"/>
<path d="M4539 628 c-6 -27 -5 -39 4 -45 7 -3 9 -3 5 2 -4 4 -3 14 3 21 7 8 7
14 -1 19 -5 3 -10 5 -11 3z"/>
<path d="M5080 603 c-15 -19 -20 -22 -15 -9 6 19 5 19 -15 1 -23 -21 -28 -44
-5 -25 20 17 19 1 -2 -22 -9 -10 -14 -21 -11 -23 3 -3 22 17 42 46 39 54 44
80 6 32z"/>
<path d="M3705 610 c-16 -7 -17 -9 -3 -9 9 -1 20 4 23 9 7 11 7 11 -20 0z"/>
<path d="M4118 613 c7 -3 16 -2 19 1 4 3 -2 6 -13 5 -11 0 -14 -3 -6 -6z"/>
<path d="M4595 610 c-4 -6 -10 -8 -14 -6 -4 3 -8 -1 -8 -9 0 -13 4 -12 19 2
18 16 22 23 14 23 -3 0 -8 -5 -11 -10z"/>
<path d="M4766 612 c-3 -5 1 -9 9 -9 8 0 12 4 9 9 -3 4 -7 8 -9 8 -2 0 -6 -4
-9 -8z"/>
<path d="M4065 600 c3 -5 13 -10 21 -10 8 0 14 5 14 10 0 6 -9 10 -21 10 -11
0 -17 -4 -14 -10z"/>
<path d="M4139 591 c7 -5 17 -15 22 -22 6 -10 8 -8 7 7 -1 12 -10 21 -22 22
-15 1 -17 -1 -7 -7z"/>
<path d="M4632 588 c2 -7 -3 -12 -9 -10 -7 1 -12 -4 -10 -10 1 -7 -4 -12 -11
-10 -8 1 -11 -2 -8 -7 4 -5 2 -12 -3 -15 -5 -3 -11 1 -14 8 -4 10 -15 13 -32
10 -20 -3 -25 -1 -19 8 4 7 -5 2 -19 -11 -15 -14 -25 -27 -22 -29 3 -3 -2 -14
-12 -24 -9 -10 -13 -18 -8 -18 4 0 1 -8 -6 -17 -13 -16 -12 -17 4 -4 13 11 17
11 17 1 0 -8 3 -10 6 -7 4 3 14 2 24 -3 13 -7 24 -2 45 19 15 16 25 32 23 37
-1 4 8 9 21 11 24 3 24 3 5 -19 -10 -13 -15 -20 -10 -16 5 4 17 3 27 -2 12 -7
20 -7 24 0 3 5 11 10 17 10 7 0 -1 -13 -17 -30 -25 -26 -29 -28 -40 -13 -10
13 -14 13 -20 3 -5 -9 -4 -11 3 -6 11 7 17 -6 13 -29 -2 -5 20 12 48 39 39 39
48 53 41 66 -5 10 -6 21 -2 25 4 5 1 5 -6 1 -7 -4 -10 -11 -7 -16 6 -10 -22
-33 -47 -37 -13 -2 -17 1 -11 9 4 7 8 16 8 20 0 3 4 10 9 15 5 4 7 3 3 -2 -3
-6 -2 -17 2 -23 6 -10 11 -9 21 3 9 11 9 15 1 15 -7 0 -10 4 -6 9 3 6 -6 8
-22 5 l-28 -5 23 24 c16 16 20 27 13 32 -7 4 -10 1 -9 -7z m-117 -48 c-3 -5
-1 -10 6 -10 8 0 8 -4 -1 -15 -7 -8 -9 -15 -5 -15 4 0 3 -6 -3 -13 -8 -10 -6
-13 11 -14 12 0 16 1 9 4 -6 3 -9 10 -5 16 4 7 8 21 8 31 0 11 8 20 18 22 9 1
15 -2 11 -7 -3 -5 -10 -6 -16 -3 -7 4 -8 2 -4 -4 4 -6 14 -8 24 -5 14 6 15 4
5 -9 -7 -8 -11 -17 -8 -20 3 -2 -6 -15 -20 -28 -16 -15 -25 -19 -25 -10 0 7
-3 10 -6 7 -4 -3 -15 -2 -26 4 -19 10 -19 12 -2 30 9 10 14 19 9 19 -4 0 -2 7
5 15 14 17 24 20 15 5z"/>
<path d="M4669 583 c-11 -13 -11 -13 35 -27 8 -3 22 4 32 15 9 10 15 19 13 20
-31 6 -72 3 -80 -8z m54 -2 c5 -1 5 -6 2 -11 -4 -7 -12 -7 -24 0 -10 5 -22 6
-26 2 -5 -4 -5 -2 -2 5 4 6 15 10 25 8 9 -2 21 -4 25 -4z"/>
<path d="M4188 583 c7 -3 16 -2 19 1 4 3 -2 6 -13 5 -11 0 -14 -3 -6 -6z"/>
<path d="M4404 583 c7 -12 -5 -18 -27 -14 -5 1 -6 -3 -3 -8 3 -5 0 -14 -8 -20
-19 -16 -13 -47 9 -43 12 2 15 -1 9 -10 -4 -7 2 -4 14 6 12 11 22 14 22 8 0
-5 7 -9 15 -8 17 2 44 26 30 26 -4 0 -1 8 9 19 14 16 15 20 2 30 -12 10 -14 9
-11 -6 1 -10 0 -22 -4 -28 -3 -5 -6 -13 -6 -17 0 -5 -3 -8 -7 -8 -5 0 -12 0
-17 0 -11 0 -9 19 3 38 5 8 3 11 -5 10 -7 -2 -13 2 -14 9 0 6 -4 15 -9 20 -5
5 -6 3 -2 -4z m12 -50 c-3 -18 -14 -27 -35 -28 -19 -1 -22 10 -8 32 10 16 45
13 43 -4z"/>
<path d="M4205 539 c4 -5 14 -9 24 -9 9 0 22 -4 29 -10 7 -5 6 -3 -1 5 -14 17
-61 30 -52 14z"/>
<path d="M4939 517 c-30 -38 -42 -57 -35 -57 7 0 69 81 64 85 -2 2 -15 -10
-29 -28z"/>
<path d="M4812 528 c-7 -7 -12 -8 -12 -3 0 5 -11 -2 -25 -15 -16 -15 -25 -19
-25 -10 0 9 -9 5 -25 -10 -14 -13 -25 -28 -25 -34 1 -6 10 0 21 13 11 13 22
22 24 19 3 -2 -12 -20 -32 -39 -21 -19 -31 -26 -24 -16 10 12 10 17 2 17 -7 0
-9 6 -5 13 4 6 -9 -4 -29 -22 -21 -19 -37 -37 -37 -40 0 -2 11 6 25 19 34 32
32 14 -2 -24 l-28 -31 33 29 c17 17 32 24 32 17 0 -7 5 -9 10 -6 16 10 12 -6
-7 -29 -13 -15 -10 -14 10 3 16 14 23 27 17 31 -6 4 0 16 15 30 14 13 25 20
25 16 0 -5 7 -3 15 4 27 23 16 -6 -12 -31 -16 -13 -22 -17 -15 -9 17 20 15 35
-3 20 -9 -7 -13 -20 -10 -28 3 -8 -2 -25 -12 -37 -10 -12 17 15 59 59 74 78
110 130 48 71 -16 -16 -30 -25 -30 -21 0 5 -7 3 -15 -4 -8 -7 -15 -8 -15 -2 0
5 7 15 15 22 12 10 15 10 15 -1 0 -9 8 -6 22 9 12 12 20 24 17 27 -3 2 -11 -1
-17 -7z"/>
<path d="M4855 450 c-10 -11 -16 -22 -13 -25 3 -3 13 4 23 15 10 11 16 22 13
25 -3 3 -13 -4 -23 -15z"/>
<path d="M2070 435 c-39 -12 -42 -14 -22 -20 12 -4 22 -12 22 -19 0 -6 5 -4
10 4 5 8 10 10 10 3 0 -7 9 -9 22 -5 20 5 19 7 -12 19 l-35 13 40 -5 c27 -3
34 -2 20 4 l-20 8 20 5 c11 3 13 6 5 6 -8 0 -35 -6 -60 -13z"/>
<path d="M4565 344 c16 -12 16 -16 4 -31 -7 -10 -1 -7 15 7 l29 25 -13 -25
c-13 -25 -13 -25 8 -7 12 11 21 14 23 8 2 -6 10 -1 18 11 13 21 13 22 -2 9
-10 -7 -17 -9 -17 -3 0 6 -11 9 -25 7 -14 -1 -25 1 -25 5 0 4 -7 7 -16 7 -15
0 -14 -2 1 -13z"/>
<path d="M4867 311 c-37 -48 -46 -68 -27 -56 14 9 73 96 68 100 -2 3 -21 -17
-41 -44z"/>
<path d="M4971 279 c-22 -35 -50 -77 -62 -92 -12 -15 -19 -30 -16 -33 2 -3 24
23 49 58 64 91 80 119 74 125 -3 3 -23 -23 -45 -58z"/>
<path d="M4748 313 c-23 -27 -33 -47 -20 -39 7 4 12 2 12 -5 0 -15 38 18 52
46 8 14 1 12 -23 -10 l-33 -30 17 28 c20 31 17 35 -5 10z"/>
<path d="M1765 290 c-3 -5 -1 -10 4 -10 6 0 11 5 11 10 0 6 -2 10 -4 10 -3 0
-8 -4 -11 -10z"/>
<path d="M4903 273 c-28 -39 -35 -53 -29 -53 9 0 59 70 53 76 -2 3 -14 -7 -24
-23z"/>
<path d="M1728 263 c7 -3 16 -2 19 1 4 3 -2 6 -13 5 -11 0 -14 -3 -6 -6z"/>
<path d="M4882 198 c-7 -7 -12 -19 -12 -27 0 -11 5 -8 16 7 18 25 15 39 -4 20z"/>
<path d="M2888 193 c7 -3 16 -2 19 1 4 3 -2 6 -13 5 -11 0 -14 -3 -6 -6z"/>
<path d="M2920 189 c0 -5 6 -9 13 -9 6 0 23 -3 37 -7 36 -9 19 6 -19 17 -19 5
-31 5 -31 -1z"/>
<path d="M4920 153 c-32 -51 -39 -74 -15 -49 8 8 15 19 15 25 0 6 5 11 11 11
6 0 8 -9 3 -22 -7 -23 -6 -23 14 -5 20 18 20 18 15 -2 -8 -31 3 -25 32 16 31
47 34 75 5 48 -20 -18 -21 -18 -14 1 7 18 7 18 -16 -1 l-23 -20 7 23 c12 35
-2 26 -34 -25z"/>
<path d="M4751 147 c-13 -21 -12 -21 5 -5 10 10 16 20 13 22 -3 3 -11 -5 -18
-17z"/>
<path d="M1967 134 c3 -8 8 -13 10 -10 3 3 17 0 32 -5 33 -13 15 3 -21 19 -23
9 -26 9 -21 -4z"/>
<path d="M4846 133 c-6 -14 -5 -15 5 -6 7 7 10 15 7 18 -3 3 -9 -2 -12 -12z"/>
<path d="M1880 137 c0 -8 57 -33 89 -40 31 -8 14 7 -24 21 -16 5 -38 13 -47
17 -10 4 -18 5 -18 2z"/>
<path d="M4870 125 c-7 -9 -10 -18 -7 -21 3 -3 10 4 17 15 13 25 8 27 -10 6z"/>
<path d="M3195 104 c16 -17 89 -38 80 -24 -3 5 3 11 12 13 12 3 9 5 -9 7 -43
4 -46 4 -54 13 -4 4 -16 7 -26 7 -18 0 -18 -1 -3 -16z"/>
<path d="M2470 91 c0 -12 6 -21 15 -21 8 0 15 3 15 6 0 3 -7 12 -15 20 -13 14
-15 13 -15 -5z"/>
<path d="M2020 81 c0 -4 18 -12 40 -18 22 -5 40 -6 40 -2 0 5 -8 9 -18 9 -10
0 -22 3 -26 7 -9 10 -36 13 -36 4z"/>
<path d="M2430 69 c0 -5 5 -7 10 -4 6 3 10 1 10 -4 0 -6 -9 -12 -20 -12 -45
-3 -94 -13 -130 -26 -8 -3 -27 -5 -42 -4 -14 1 -29 -2 -33 -8 -4 -8 23 -11 85
-11 54 0 89 4 85 9 -3 5 -1 12 5 16 5 3 10 -1 10 -9 0 -12 11 -16 45 -16 34 0
45 4 45 16 0 8 -4 12 -10 9 -5 -3 -10 2 -11 12 0 16 -1 16 -9 -2 -7 -17 -9
-15 -9 13 -1 21 -6 32 -16 32 -8 0 -15 -5 -15 -11z"/>
<path d="M2127 49 c7 -7 15 -10 18 -7 3 3 -2 9 -12 12 -14 6 -15 5 -6 -5z"/>
<path d="M2250 40 c0 -6 7 -10 15 -10 8 0 15 2 15 4 0 2 -7 6 -15 10 -8 3 -15
1 -15 -4z"/>
<path d="M3316 39 c8 -13 74 -42 81 -35 3 2 -14 14 -38 25 -49 24 -53 25 -43
10z"/>
<path d="M4853 38 c-20 -26 -26 -41 -15 -34 12 7 36 46 29 46 -3 0 -9 -6 -14
-12z"/>
<path d="M2642 20 c0 -14 2 -19 5 -12 2 6 2 18 0 25 -3 6 -5 1 -5 -13z"/>
<path d="M3560 22 c0 -9 54 -22 94 -22 29 0 13 10 -22 15 -17 2 -41 6 -52 10
-11 3 -20 2 -20 -3z"/>
<path d="M2757 9 c7 -7 15 -10 18 -7 3 3 -2 9 -12 12 -14 6 -15 5 -6 -5z"/>
<path d="M2148 3 c6 -2 18 -2 25 0 6 3 1 5 -13 5 -14 0 -19 -2 -12 -5z"/>
<path d="M2528 3 c6 -2 18 -2 25 0 6 3 1 5 -13 5 -14 0 -19 -2 -12 -5z"/>
</g>
</svg>
